<svg width="2632" height="1245" viewBox="0 0 2632 1245" fill="none" xmlns="http://www.w3.org/2000/svg">
<path d="M2632 1113.43L2522.47 1077.9C2230.8 982.712 1929.08 886.862 1621.13 867.587C1450.12 856.897 1286.41 881.27 1121.88 926.794C970.114 968.799 817.326 1020.57 658.42 1024.62C439.024 1030.21 219.956 940.084 110.094 895.35L0.55957 850.285V180.222L110.094 249.659C219.956 319.129 439.024 458.003 658.42 494.416C877.816 530.466 1096.88 464.384 1316.28 370.541C1535.68 276.697 1754.74 155.059 1974.14 88.9766C2193.54 22.5328 2412.6 11.2836 2522.47 5.62598L2632 0.000976562V1113.43Z" fill="#5967B2"/>
<path d="M1645.21 512.936C1810.53 484.582 1975.75 482.575 2140.64 514.975C2271.36 540.664 2397.8 582.636 2522.47 628.916L2632 669.375V1113.43L2522.47 1077.9C2230.8 982.711 1929.08 886.862 1621.13 867.587C1450.12 856.897 1286.41 881.27 1121.88 926.794C970.114 968.799 817.326 1020.57 658.42 1024.62C464.138 1029.57 270.115 959.461 151.952 912.282C321.611 874.477 490.875 834.922 658.42 788.447C986.495 697.464 1308.75 570.597 1645.21 512.936Z" fill="#00ADD8"/>
<path d="M0.55957 695.689L110.094 711.576C219.956 727.201 439.024 758.975 658.42 765.357C877.816 771.771 1096.88 753.384 1316.28 768.976C1535.68 784.863 1754.74 835.025 1974.14 862.062C2193.54 888.804 2412.6 892.718 2522.47 894.396L2632 896.336V1113.43L2522.47 1077.9C2230.8 982.712 1929.08 886.862 1621.13 867.587C1450.12 856.897 1286.41 881.27 1121.88 926.794C970.114 968.799 817.326 1020.57 658.42 1024.62C439.024 1030.21 219.956 940.084 110.094 895.35L0.55957 850.285V695.689Z" fill="#C0FCF8"/>
<path d="M2583 962.284C2535.49 1031.21 2480.24 1145.12 2383.29 1137.65C2347.47 1134.65 2318.8 1105.86 2313.15 1071.15C2305.3 1023.28 2322.16 979.486 2336.13 933.19C2354.62 876.697 2378.22 821.934 2401.4 766.98C2426.27 703.136 2464.77 633.559 2450.84 563.596C2436.6 495.365 2357.95 475.316 2303.56 510.066C2210.94 587.879 2087.56 763.286 2005.93 845.717C1980.55 869.268 1938.57 866.998 1917.83 836.327C1899.65 808.542 1902.01 771.56 1908.7 741.273C1928.63 659.073 1974.74 529.577 1979.04 449.801C1984.22 395.04 1941.32 363.714 1891.45 358.403C1792.64 350.591 1675.03 458.037 1607.9 522.996C1555.36 576.488 1508.71 636.83 1465.76 700.096C1385.83 823.512 1334.73 940.541 1398.79 1010.46C1424.52 1038.71 1471.72 1057.72 1512.03 1049.45C1590.53 1036.94 1627.52 964.014 1641.06 891.704C1654.72 827.745 1656.65 763.016 1644.15 698.788C1606.16 495.943 1439.26 436.794 1316 618.473" stroke="#00CAC3" stroke-width="18" stroke-miterlimit="10" stroke-linecap="round"/>
<path d="M2307.5 610C2332.08 610 2352 590.077 2352 565.5C2352 540.923 2332.08 521 2307.5 521C2282.92 521 2263 540.923 2263 565.5C2263 590.077 2282.92 610 2307.5 610Z" fill="#00BFCB"/>
<path d="M2510.5 547C2535.08 547 2555 527.077 2555 502.5C2555 477.923 2535.08 458 2510.5 458C2485.92 458 2466 477.923 2466 502.5C2466 527.077 2485.92 547 2510.5 547Z" fill="#00BFCB"/>
<path d="M2441.5 894C2466.08 894 2486 874.077 2486 849.5C2486 824.923 2466.08 805 2441.5 805C2416.92 805 2397 824.923 2397 849.5C2397 874.077 2416.92 894 2441.5 894Z" fill="#00BFCB"/>
<path d="M162.5 641C187.077 641 207 621.077 207 596.5C207 571.923 187.077 552 162.5 552C137.923 552 118 571.923 118 596.5C118 621.077 137.923 641 162.5 641Z" fill="#00BFCB"/>
<path d="M219.5 740C244.077 740 264 720.077 264 695.5C264 670.923 244.077 651 219.5 651C194.923 651 175 670.923 175 695.5C175 720.077 194.923 740 219.5 740Z" fill="#00BFCB"/>
</svg>
