<svg width="369" height="199" viewBox="0 0 369 199" fill="none" xmlns="http://www.w3.org/2000/svg">
<g clip-path="url(#clip0_449_403)">
<path d="M278.693 192.965H277.617V181.743H278.693V192.965ZM286.117 192.965H284.591L279.942 188.554C279.456 188.131 279.248 187.672 279.248 187.178C279.248 186.754 279.525 186.26 280.115 185.731L284.313 181.743H285.77L280.879 186.472C280.566 186.754 280.428 186.966 280.428 187.178C280.428 187.354 280.566 187.601 280.879 187.884L286.152 192.93L286.117 192.965Z" fill="#79A897"/>
<path d="M287.054 192.965L291.182 182.519C291.425 181.92 291.772 181.637 292.258 181.637C292.744 181.637 293.091 181.92 293.333 182.519L297.462 192.965H296.248L292.466 183.155C292.362 182.943 292.293 182.802 292.258 182.802C292.223 182.802 292.154 182.908 292.05 183.155L288.268 192.965H287.054Z" fill="#79A897"/>
<path d="M308.633 192.965H307.558V183.19C307.558 183.19 307.558 182.943 307.454 182.943C307.419 182.943 307.35 183.014 307.211 183.19L301.591 192.26C301.417 192.542 301.244 192.754 301.07 192.895C300.897 193.001 300.688 193.071 300.411 193.071C299.752 193.071 299.405 192.683 299.405 191.907V181.708H300.48V191.483C300.48 191.66 300.515 191.766 300.619 191.766C300.689 191.766 300.758 191.66 300.862 191.483L306.552 182.273C306.829 181.814 307.211 181.602 307.697 181.602C308.321 181.602 308.668 182.026 308.668 182.908V192.965H308.633Z" fill="#79A897"/>
<path d="M320.429 192.965H319.354V187.672H312.727V192.965H311.652V181.743H312.727V186.684H319.354V181.743H320.429V192.965Z" fill="#79A897"/>
<path d="M332.676 192.965H331.6V183.19C331.6 183.19 331.6 182.943 331.496 182.943C331.462 182.943 331.392 183.014 331.253 183.19L325.633 192.26C325.46 192.542 325.286 192.754 325.113 192.895C324.939 193.001 324.731 193.071 324.453 193.071C323.794 193.071 323.447 192.683 323.447 191.907V181.708H324.523V191.483C324.523 191.66 324.558 191.766 324.662 191.766C324.731 191.766 324.8 191.66 324.905 191.483L330.594 182.273C330.872 181.814 331.253 181.602 331.739 181.602C332.364 181.602 332.711 182.026 332.711 182.908V192.965H332.676Z" fill="#79A897"/>
<path d="M336.77 192.965H335.694V181.743H336.77V192.965ZM344.194 192.965H342.668L338.019 188.554C337.533 188.131 337.325 187.672 337.325 187.178C337.325 186.754 337.602 186.26 338.192 185.731L342.39 181.743H343.847L338.955 186.472C338.643 186.754 338.504 186.966 338.504 187.178C338.504 187.354 338.643 187.601 338.955 187.884L344.229 192.93L344.194 192.965Z" fill="#79A897"/>
<path d="M346.345 181.743H351.688C353.457 181.743 354.325 182.696 354.325 184.566V191.483C354.325 192.013 354.221 192.401 354.012 192.612C353.804 192.824 353.388 192.965 352.729 192.965H348.496C347.421 192.965 346.657 192.683 346.206 192.154C345.755 191.624 345.512 190.742 345.512 189.578C345.512 188.413 345.755 187.566 346.206 187.037C346.657 186.507 347.421 186.26 348.496 186.26H353.249V184.39C353.249 183.931 353.11 183.543 352.867 183.225C352.625 182.908 352.208 182.767 351.688 182.767H346.345V181.778V181.743ZM353.249 187.248H348.184C347.559 187.248 347.178 187.425 346.935 187.848C346.727 188.237 346.623 188.836 346.623 189.613C346.623 190.389 346.727 190.989 346.935 191.377C347.143 191.801 347.559 191.977 348.184 191.977H352.729C353.076 191.977 353.249 191.801 353.249 191.483V187.284V187.248Z" fill="#79A897"/>
<path d="M168.576 174.509H164.586C162.817 174.509 161.602 174.05 160.908 173.133C160.215 172.215 159.902 170.803 159.902 168.898C159.902 166.992 160.249 165.651 160.908 164.698C161.568 163.745 162.782 163.287 164.551 163.287H168.263V164.275H164.551C163.164 164.275 162.227 164.663 161.741 165.404C161.255 166.145 161.013 167.31 161.013 168.898C161.013 170.592 161.255 171.756 161.741 172.462C162.227 173.168 163.164 173.521 164.551 173.521H168.541V174.509H168.576Z" fill="#79A897"/>
<path d="M175.202 174.509H174.127V164.275H169.963V163.287H179.365V164.275H175.202V174.509Z" fill="#79A897"/>
<path d="M181.725 164.487C182.557 163.604 183.945 163.146 185.922 163.146C187.9 163.146 189.288 163.604 190.12 164.487C190.953 165.369 191.369 166.851 191.369 168.862C191.369 170.874 190.953 172.356 190.12 173.274C189.288 174.191 187.865 174.615 185.922 174.615C183.98 174.615 182.557 174.156 181.725 173.274C180.892 172.391 180.476 170.909 180.476 168.862C180.476 166.816 180.892 165.369 181.725 164.487ZM182.557 165.192C181.898 165.863 181.586 167.098 181.586 168.898C181.586 170.698 181.898 171.897 182.557 172.603C183.216 173.309 184.327 173.662 185.922 173.662C187.518 173.662 188.629 173.309 189.288 172.603C189.947 171.897 190.259 170.662 190.259 168.898C190.259 167.133 189.947 165.898 189.288 165.192C188.629 164.522 187.518 164.169 185.922 164.169C184.327 164.169 183.216 164.522 182.557 165.192Z" fill="#79A897"/>
<path d="M204.761 164.698L201.049 173.838C200.841 174.368 200.494 174.65 200.043 174.65C199.592 174.65 199.245 174.368 199.037 173.838L195.324 164.698C195.324 164.698 195.22 164.522 195.186 164.522C195.116 164.522 195.116 164.557 195.116 164.663V174.509H194.041V164.31C194.041 163.534 194.388 163.146 195.082 163.146C195.567 163.146 195.949 163.393 196.157 163.922L199.835 172.956C199.939 173.203 200.008 173.344 200.077 173.344C200.112 173.344 200.182 173.203 200.32 172.956L203.998 163.922C204.206 163.428 204.553 163.146 205.073 163.146C205.767 163.146 206.114 163.534 206.114 164.31V174.509H205.039V164.663C205.039 164.663 205.039 164.522 204.969 164.522C204.9 164.522 204.865 164.592 204.83 164.698H204.761Z" fill="#79A897"/>
<path d="M209.549 163.287H214.892C216.661 163.287 217.528 164.239 217.528 166.11V173.027C217.528 173.556 217.424 173.944 217.216 174.156C217.008 174.368 216.591 174.509 215.932 174.509H211.7C210.624 174.509 209.861 174.227 209.41 173.697C208.959 173.168 208.716 172.286 208.716 171.121C208.716 169.956 208.959 169.109 209.41 168.58C209.861 168.051 210.624 167.804 211.7 167.804H216.453V165.933C216.453 165.475 216.314 165.086 216.071 164.769C215.828 164.451 215.412 164.31 214.892 164.31H209.549V163.322V163.287ZM216.453 168.792H211.387C210.763 168.792 210.381 168.968 210.138 169.392C209.93 169.78 209.826 170.38 209.826 171.156C209.826 171.933 209.93 172.533 210.138 172.921C210.347 173.344 210.763 173.521 211.387 173.521H215.932C216.279 173.521 216.453 173.344 216.453 173.027V168.827V168.792Z" fill="#79A897"/>
<path d="M224.675 174.509H223.6V164.275H219.436V163.287H228.838V164.275H224.675V174.509Z" fill="#79A897"/>
<path d="M231.197 164.487C232.03 163.604 233.418 163.146 235.395 163.146C237.373 163.146 238.761 163.604 239.593 164.487C240.426 165.369 240.842 166.851 240.842 168.862C240.842 170.874 240.426 172.356 239.593 173.274C238.761 174.191 237.338 174.615 235.395 174.615C233.453 174.615 232.03 174.156 231.197 173.274C230.365 172.391 229.948 170.909 229.948 168.862C229.948 166.816 230.365 165.369 231.197 164.487ZM232.03 165.192C231.371 165.863 231.059 167.098 231.059 168.898C231.059 170.698 231.371 171.897 232.03 172.603C232.689 173.309 233.799 173.662 235.395 173.662C236.991 173.662 238.101 173.309 238.761 172.603C239.42 171.897 239.732 170.662 239.732 168.898C239.732 167.133 239.42 165.898 238.761 165.192C238.101 164.522 236.991 164.169 235.395 164.169C233.799 164.169 232.689 164.522 232.03 165.192Z" fill="#79A897"/>
<path d="M242.161 174.509L246.289 164.063C246.532 163.463 246.879 163.181 247.365 163.181C247.85 163.181 248.197 163.463 248.44 164.063L252.569 174.509H251.354L247.573 164.698C247.469 164.486 247.399 164.345 247.365 164.345C247.33 164.345 247.261 164.451 247.156 164.698L243.375 174.509H242.161Z" fill="#79A897"/>
<path d="M255.171 164.487C256.003 163.604 257.391 163.146 259.369 163.146C261.346 163.146 262.734 163.604 263.566 164.487C264.399 165.369 264.815 166.851 264.815 168.862C264.815 170.874 264.399 172.356 263.566 173.274C262.734 174.191 261.311 174.615 259.369 174.615C257.426 174.615 256.003 174.156 255.171 173.274C254.338 172.391 253.922 170.909 253.922 168.862C253.922 166.816 254.338 165.369 255.171 164.487ZM256.003 165.192C255.344 165.863 255.032 167.098 255.032 168.898C255.032 170.698 255.344 171.897 256.003 172.603C256.662 173.309 257.773 173.662 259.369 173.662C260.964 173.662 262.075 173.309 262.734 172.603C263.393 171.897 263.705 170.662 263.705 168.898C263.705 167.133 263.393 165.898 262.734 165.192C262.075 164.522 260.964 164.169 259.369 164.169C257.773 164.169 256.662 164.522 256.003 165.192Z" fill="#79A897"/>
<path d="M267.487 174.509V165.051C267.487 164.487 267.591 164.028 267.834 163.71C268.042 163.393 268.458 163.251 269.013 163.251H275.813V164.24H269.291C269.048 164.24 268.875 164.275 268.771 164.381C268.666 164.487 268.632 164.698 268.632 165.051V174.474H267.556L267.487 174.509Z" fill="#79A897"/>
<path d="M286.881 174.509H285.805V164.734C285.805 164.734 285.805 164.487 285.701 164.487C285.666 164.487 285.597 164.557 285.458 164.734L279.838 173.803C279.664 174.085 279.491 174.297 279.317 174.438C279.144 174.544 278.936 174.615 278.658 174.615C277.999 174.615 277.652 174.227 277.652 173.45V163.251H278.728V173.027C278.728 173.203 278.762 173.309 278.866 173.309C278.936 173.309 279.005 173.203 279.109 173.027L284.799 163.816C285.076 163.357 285.458 163.146 285.944 163.146C286.568 163.146 286.915 163.569 286.915 164.451V174.509H286.881Z" fill="#79A897"/>
<path d="M298.329 174.509H297.254V169.251H292.397C291.356 169.251 290.627 169.039 290.211 168.651C289.795 168.263 289.587 167.521 289.587 166.498V163.287H290.662V166.498C290.662 167.169 290.766 167.627 291.009 167.874C291.217 168.121 291.703 168.263 292.397 168.263H297.254V163.322H298.329V174.544V174.509Z" fill="#79A897"/>
<path d="M310.195 174.509H304.782C303.36 174.509 302.389 174.015 301.799 173.062C301.244 172.109 300.966 170.733 300.966 168.968C300.966 166.957 301.313 165.51 302.007 164.557C302.701 163.604 303.915 163.146 305.719 163.146C308.876 163.146 310.472 164.557 310.472 167.416C310.472 168.086 310.368 168.545 310.125 168.827C309.917 169.11 309.501 169.251 308.876 169.251H302.111C302.111 169.815 302.111 170.309 302.215 170.768C302.284 171.192 302.389 171.65 302.562 172.109C302.735 172.568 303.013 172.886 303.395 173.133C303.776 173.38 304.262 173.485 304.817 173.485H310.229V174.474L310.195 174.509ZM302.111 168.298H308.876C309.188 168.298 309.327 168.121 309.327 167.804V167.663C309.327 166.357 309.05 165.439 308.46 164.945C307.87 164.451 306.968 164.204 305.754 164.204C304.54 164.204 303.568 164.487 302.978 165.086C302.389 165.686 302.111 166.745 302.111 168.333V168.298Z" fill="#79A897"/>
<path d="M321.366 174.509H317.376C315.607 174.509 314.392 174.05 313.699 173.133C313.005 172.215 312.693 170.803 312.693 168.898C312.693 166.992 313.039 165.651 313.699 164.698C314.358 163.745 315.572 163.287 317.341 163.287H321.054V164.275H317.341C315.954 164.275 315.017 164.663 314.531 165.404C314.046 166.145 313.803 167.31 313.803 168.898C313.803 170.592 314.046 171.756 314.531 172.462C315.017 173.168 315.954 173.521 317.341 173.521H321.331V174.509H321.366Z" fill="#79A897"/>
<path d="M324.766 174.509H323.69V163.287H324.766V174.509ZM332.19 174.509H330.664L326.015 170.098C325.529 169.674 325.321 169.215 325.321 168.721C325.321 168.298 325.598 167.804 326.188 167.274L330.386 163.287H331.843L326.952 168.015C326.639 168.298 326.501 168.51 326.501 168.721C326.501 168.898 326.639 169.145 326.952 169.427L332.225 174.474L332.19 174.509Z" fill="#79A897"/>
<path d="M334.307 163.287H339.649C341.419 163.287 342.286 164.239 342.286 166.11V173.027C342.286 173.556 342.182 173.944 341.974 174.156C341.766 174.368 341.349 174.509 340.69 174.509H336.458C335.382 174.509 334.619 174.227 334.168 173.697C333.717 173.168 333.474 172.286 333.474 171.121C333.474 169.956 333.717 169.109 334.168 168.58C334.619 168.051 335.382 167.804 336.458 167.804H341.211V165.933C341.211 165.475 341.072 165.086 340.829 164.769C340.586 164.451 340.17 164.31 339.649 164.31H334.307V163.322V163.287ZM341.211 168.792H336.145C335.521 168.792 335.139 168.968 334.896 169.392C334.688 169.78 334.584 170.38 334.584 171.156C334.584 171.933 334.688 172.533 334.896 172.921C335.105 173.344 335.521 173.521 336.145 173.521H340.69C341.037 173.521 341.211 173.344 341.211 173.027V168.827V168.792Z" fill="#79A897"/>
<path d="M344.611 174.509L348.774 170.486C348.774 170.486 348.947 170.274 348.947 170.203C348.947 170.133 348.878 170.098 348.774 170.098H347.594C345.79 170.098 344.923 168.968 344.923 166.674C344.923 164.381 345.825 163.287 347.594 163.287H352.278C352.833 163.287 353.215 163.428 353.457 163.745C353.666 164.063 353.804 164.486 353.804 165.086V174.544H352.729V165.122C352.729 164.769 352.694 164.557 352.59 164.451C352.486 164.345 352.312 164.31 352.07 164.31H347.629C347.282 164.31 347.004 164.381 346.762 164.522C346.553 164.663 346.38 164.875 346.276 165.122C346.172 165.369 346.102 165.616 346.102 165.863C346.102 166.11 346.068 166.392 346.068 166.71C346.068 167.027 346.068 167.31 346.102 167.557C346.102 167.804 346.206 168.051 346.276 168.333C346.38 168.615 346.519 168.827 346.762 168.968C346.97 169.109 347.282 169.18 347.629 169.18H349.745C350.3 169.18 350.578 169.392 350.578 169.815C350.578 170.098 350.474 170.345 350.3 170.521L346.102 174.579H344.645L344.611 174.509Z" fill="#79A897"/>
<path d="M118.201 126.373H92.7704C75.493 126.373 66.889 115.68 66.889 94.2595C66.889 89.5659 67.2707 85.4017 68.0686 81.7668C68.8666 78.1673 70.1849 74.8147 72.1278 71.7092C74.0359 68.6037 76.8114 66.2393 80.4195 64.5806C84.0276 62.922 88.4337 62.1104 93.6724 62.1104H117.229V66.5216H93.6724C85.8664 66.5216 80.3154 68.8507 77.0195 73.509C73.7583 78.1673 72.0931 85.0841 72.0931 94.2595C72.0931 103.435 73.6543 110.422 76.7767 115.045C79.8991 119.668 85.2419 121.962 92.8398 121.962H118.201V126.373Z" fill="#79A897"/>
<path d="M163.406 126.373H139.954C133.813 126.373 129.546 124.291 127.082 120.127C124.654 115.963 123.439 110.069 123.439 102.412C123.439 93.7302 124.931 87.3427 127.915 83.2844C130.899 79.226 136.241 77.1792 143.909 77.1792C157.613 77.1792 164.482 83.3549 164.482 95.7064C164.482 98.5649 163.996 100.647 163.025 101.847C162.053 103.082 160.249 103.682 157.613 103.682H128.297C128.297 106.117 128.435 108.305 128.713 110.211C128.99 112.116 129.511 114.022 130.239 115.928C130.968 117.833 132.182 119.351 133.848 120.409C135.513 121.468 137.525 122.033 139.919 122.033H163.372V126.338L163.406 126.373ZM128.331 99.4119H157.647C158.966 99.4119 159.625 98.6708 159.625 97.2239V96.5887C159.625 90.907 158.341 86.9545 155.808 84.8018C153.241 82.6139 149.321 81.5552 144.047 81.5552C138.774 81.5552 134.507 82.8609 132.043 85.437C129.58 88.0132 128.331 92.7068 128.331 99.4119Z" fill="#79A897"/>
<path d="M178.394 126.373V141.971H173.71V84.7311C173.71 80.0728 176.243 77.7437 181.274 77.7437H193.451C200.806 77.7437 205.871 79.7199 208.751 83.6724C211.63 87.6248 213.053 93.73 213.053 101.988C213.053 110.246 211.63 116.386 208.751 120.374C205.906 124.397 200.806 126.373 193.451 126.373H178.394ZM178.394 85.3663V122.068H193.451C199.279 122.068 203.2 120.409 205.177 117.057C207.155 113.704 208.161 108.693 208.161 101.953C208.161 95.2122 207.155 90.2363 205.177 86.9543C203.2 83.6724 199.279 82.049 193.451 82.049H181.274C180.267 82.049 179.504 82.2608 179.053 82.7548C178.602 83.2136 178.359 84.0958 178.359 85.3663H178.394Z" fill="#79A897"/>
<path d="M254.65 100.859V101.212C256.94 101.706 258.605 102.764 259.646 104.423C260.687 106.082 261.242 108.728 261.242 112.399C261.242 121.68 257.842 126.338 251.042 126.338H228.144C224.71 126.338 223.01 124.397 223.01 120.55V83.496C223.01 81.8374 223.53 80.4611 224.606 79.3671C225.646 78.2731 227 77.7085 228.63 77.7085H250.001C253.922 77.7085 256.732 78.7319 258.432 80.814C260.132 82.8961 260.999 86.0016 260.999 90.1658C260.999 93.589 260.548 96.0946 259.681 97.6826C258.813 99.2707 257.148 100.294 254.685 100.788L254.65 100.859ZM227.693 98.8472H249.238C251.632 98.8472 253.401 98.1767 254.477 96.8356C255.552 95.4946 256.107 93.3067 256.107 90.2364C256.107 87.4132 255.587 85.3664 254.581 84.0607C253.575 82.755 251.771 82.0844 249.169 82.0844H229.602C228.353 82.0844 227.693 82.6844 227.693 83.8137V98.8472ZM227.693 103.153V119.033C227.693 119.774 227.693 120.303 227.797 120.656C227.867 121.009 228.11 121.327 228.561 121.609C229.012 121.892 229.706 122.068 230.573 122.068H248.336C251.354 122.068 253.436 121.433 254.616 120.127C255.795 118.857 256.385 116.28 256.385 112.434C256.385 106.258 253.991 103.153 249.169 103.153H227.693Z" fill="#79A897"/>
<path d="M311.652 126.373H306.968V84.0607C306.968 83.3196 306.829 82.9667 306.517 82.9667C306.343 82.9667 305.997 83.3196 305.511 84.0607L281.156 123.409C280.358 124.679 279.63 125.597 278.901 126.126C278.172 126.656 277.201 126.903 276.021 126.903C273.142 126.903 271.685 125.209 271.685 121.856V77.7085H276.368V120.021C276.368 120.833 276.542 121.221 276.923 121.221C277.166 121.221 277.479 120.833 277.93 120.021L302.562 80.1083C303.776 78.1673 305.407 77.1792 307.523 77.1792C310.299 77.1792 311.686 79.0496 311.686 82.7903V126.373H311.652Z" fill="#79A897"/>
<path d="M355.539 126.373H338.296C330.594 126.373 325.321 124.397 322.407 120.444C319.492 116.492 318.07 110.352 318.07 102.058C318.07 93.7653 319.527 87.9777 322.441 83.8841C325.356 79.7905 330.629 77.7437 338.262 77.7437H354.394V82.049H338.262C332.294 82.049 328.27 83.6724 326.119 86.8837C323.968 90.0951 322.927 95.1416 322.927 102.058C322.927 109.328 323.968 114.48 326.049 117.515C328.131 120.55 332.19 122.068 338.262 122.068H355.504V126.373H355.539Z" fill="#79A897"/>
<path d="M139.711 47.0767L151.576 14.5394C151.888 13.6572 151.229 12.7396 150.292 12.7749C149.078 12.8455 147.864 12.8808 146.684 12.9514C146.164 12.9514 145.713 13.3396 145.539 13.7983C139.121 30.9845 134.784 43.7595 133.639 47.6767C132.356 52.0526 131.731 56.1463 131.731 56.1463C131.558 57.3461 131.454 58.3342 131.384 59.0047C134.611 59.04 137.803 59.1106 141.029 59.1459C141.896 57.4873 141.758 56.7462 141.48 56.3933C141.064 55.8286 140.196 56.1463 139.364 55.3699C138.809 54.8405 138.601 54.17 138.496 53.7465C138.288 52.9349 138.323 52.2291 138.496 51.3468C138.67 50.3234 139.017 48.8765 139.711 47.1473V47.0767Z" fill="#79A897"/>
<path d="M155.011 152.805C154.178 153.017 151.888 153.652 148.801 156.122C145.366 158.875 143.458 161.875 141.446 165.121C140.752 166.251 139.642 168.333 137.456 172.497C135.409 176.379 134.438 178.39 133.987 179.343C133.605 180.155 133.64 180.084 131.766 184.143C129.546 188.977 128.991 190.177 127.776 191.73C126.146 193.812 125.036 194.483 124.099 194.835C123.162 195.188 122.295 195.259 121.254 195.365C119.797 195.506 116.501 194.271 115.668 193.318C114.454 191.977 113.795 190.671 113.552 190.213C112.268 187.636 111.852 185.59 111.228 183.366C111.124 183.013 110.464 180.896 109.111 176.732C108.036 173.379 106.197 167.839 102.797 161.875C101.513 159.616 99.1543 155.77 95.1299 152.558C93.1523 151.005 91.4176 150.088 89.336 149.982C88.5381 149.947 87.185 149.982 85.034 150.935C81.1137 152.664 78.6504 155.523 77.3668 157.146C74.2791 160.992 71.3995 164.557 68.9363 170.627C66.0914 177.685 67.1669 179.837 63.5588 187.107C61.3384 191.589 59.7078 193.247 57.765 194.271C53.9487 196.282 50.3059 195.435 49.0222 195.118C45.7263 194.306 43.5406 192.365 42.1876 191.059C33.6183 182.766 29.8714 173.415 29.8714 173.415C23.1062 156.475 19.7062 148.006 16.4103 134.56C13.0104 120.832 10.2349 109.504 9.15938 93.5887C8.39612 82.4017 7.77163 71.85 10.5124 58.1575C13.8777 41.5007 20.0878 31.1607 22.1 27.9846C28.1367 18.4564 33.7571 14.0804 35.6652 12.6688C41.4937 8.39872 46.7671 6.63423 48.2936 6.14017C54.7813 4.09335 60.0894 4.16393 62.8996 4.19922C66.2649 4.2698 70.1158 4.34038 74.6954 5.92843C83.4035 8.89278 89.0932 15.245 90.585 16.9389C93.534 20.3267 97.1768 23.1146 99.7441 26.7848C100.23 27.4553 101.618 29.608 103.526 29.5727C104.601 29.5727 105.399 29.0081 105.746 28.7257C110.395 24.4909 114.454 20.5738 117.958 17.0801C121.393 13.6216 121.948 12.8805 123.752 11.5042C130.17 6.56365 136.484 5.08147 139.433 4.44625C142.695 3.74045 148.246 2.57588 155.219 4.02277C156.468 4.2698 160.909 5.29321 166.043 8.29285C171.143 11.2925 178.498 15.5979 180.857 24.2439C183.286 33.0311 178.949 40.7243 177.804 42.7711C173.745 49.9703 167.674 53.0052 165.592 53.9933C161.984 55.7225 157.37 57.9458 152.548 56.0401C151.507 55.6167 147.482 53.8169 146.233 49.935C144.533 44.5709 149.425 39.348 147.482 37.6188C146.754 36.9483 145.088 36.913 144.325 37.6188C143.874 38.0423 143.84 38.6069 143.805 38.8892C143.146 45.1356 142.66 44.3239 142.868 47.6764C143.042 50.782 143.146 52.3347 143.701 53.5699C145.401 57.2753 149.078 58.7928 150.223 59.2515C151.333 59.7103 154.213 60.6984 159.694 59.7809C167.882 58.4399 173.676 54.2051 175.688 52.617C179.747 49.4056 185.333 44.9944 187.38 36.9836C189.808 27.3847 185.472 19.4092 184.431 17.5035C179.609 8.68104 171.629 5.25792 166.98 3.28168C157.786 -0.600212 149.737 -0.106152 145.748 0.176167C142.625 0.387907 135.756 0.952546 128.193 4.83444C125.14 6.3872 120.491 8.75162 116.189 13.5158C113.032 17.0095 109.007 19.6562 106.093 23.3617C105.781 23.7499 104.844 24.985 103.56 24.9497C102.52 24.9497 101.687 24.1027 101.236 23.5734C100.056 21.4913 98.3217 18.8093 95.8584 15.9861C90.6544 9.95148 85.2075 6.7401 83.1259 5.61082C69.6995 -1.72949 56.6201 0.317327 52.7691 0.987836C46.3508 2.08182 41.7366 4.23451 38.8917 5.57553C36.7407 6.59894 28.0673 10.869 19.6368 19.7974C6.66144 33.631 2.91455 49.4409 1.76966 54.6991C-1.24867 68.2858 0.139066 79.1551 2.0819 93.9768C2.98393 100.894 4.51045 107.846 7.56347 121.785C9.95732 132.725 11.2063 138.336 13.6695 146.065C16.9654 156.405 20.2613 163.71 22.3082 168.227C23.0021 169.744 25.8123 175.85 30.2877 183.296C33.2367 188.201 35.4917 191.236 38.9264 193.989C40.5917 195.33 42.708 196.988 45.9692 198.047C51.3814 199.776 55.9609 198.541 56.8976 198.259C61.4772 196.918 64.218 194.165 64.8771 193.459C67.0628 191.165 67.9995 188.872 69.2832 185.766C70.1158 183.754 70.1852 183.19 71.9199 177.085C74.3484 168.58 77.1933 163.71 79.4831 160.498C82.2933 156.616 82.9871 155.17 85.0687 154.076C86.5953 153.264 87.9483 153.158 88.3299 153.123C88.9197 153.087 90.134 152.982 91.487 153.546C92.0768 153.793 92.8054 154.181 94.5401 156.017C95.6156 157.146 96.4482 157.993 97.489 159.44C98.9461 161.487 100.195 163.78 101.479 167.239C101.999 168.58 102.45 169.956 104.011 175.708C106.336 184.284 106.301 185.025 107.481 187.495C108.903 190.389 110.222 192.083 112.095 194.553C113.275 196.106 114.073 196.918 115.252 197.553C116.744 198.329 118.132 198.4 119.97 198.506C121.393 198.576 123.058 198.682 125.14 198.082C125.73 197.906 127.464 197.376 129.754 195.612C132.009 193.918 133.744 191.906 135.756 188.766C137.282 186.401 137.733 185.307 140.925 178.92C143.735 173.273 144.811 171.191 146.095 168.968C148.697 164.345 152.964 158.734 155.046 157.746C155.843 157.358 156.537 157.181 157.058 157.111C157.543 157.04 158.029 156.969 158.515 156.899C224.19 156.722 289.864 156.546 355.539 156.369V152.629C242.265 152.84 157.301 152.311 155.046 152.84L155.011 152.805Z" fill="#79A897"/>
<path d="M283.168 22.7972C286.985 22.5149 293.542 22.0209 300.758 20.3622C303.152 19.7976 307.072 18.7742 311.201 17.4685C312.137 17.1861 313.039 16.9038 313.941 16.5862C314.843 15.9157 315.78 15.2452 316.682 14.5747L312.45 12.2808C311.895 11.9632 311.201 11.9985 310.646 12.2808C305.303 15.3158 300.584 16.9744 297.15 17.9625C292.362 19.3035 288.546 19.727 283.272 20.3269C277.375 20.9622 272.413 21.1739 268.771 21.2092C268.701 21.8091 268.666 22.4443 268.597 23.0443C274.356 23.256 279.317 23.0443 283.168 22.7972Z" fill="#79A897"/>
<path d="M194.388 58.7575C197.579 60.4867 200.841 59.8868 203.165 59.4633C205.351 59.0751 206.843 58.4046 208.716 57.5577C210.173 56.9224 213.261 55.405 216.626 52.7229C219.471 50.3938 221.379 48.2411 221.379 48.2411C222.836 46.6531 223.565 45.5238 223.842 45.7002C224.259 45.912 223.426 48.8763 222.246 51.3819C222.108 51.6642 220.963 54.064 220.096 57.0283C219.991 57.4518 219.818 58.0164 220.096 58.4752C220.685 59.4986 222.871 59.3575 224.293 58.8987C224.744 58.7222 225.091 58.5458 225.334 58.4399C227.589 51.876 231.44 40.2303 232.099 39.7715C232.585 39.4539 236.436 40.195 239.559 40.0891C242.299 40.0186 242.854 39.8774 243.271 39.7715C244.554 39.4186 245.491 38.8187 246.116 38.3952C245.318 40.0891 240.426 51.9466 240.391 53.3934C240.357 53.9934 240.252 56.499 241.814 57.9811C243.791 59.9221 247.226 58.934 248.752 58.5105C252.326 57.5224 254.685 55.1227 256.142 53.6758C257.218 52.5465 257.495 52.0524 260.583 48.6646C262.734 46.3355 263.358 45.7355 263.636 45.912C264.156 46.2296 263.115 49.1939 262.213 51.1702C261.52 52.6524 260.895 53.5699 260.201 55.5814C259.715 56.993 259.473 57.6988 259.75 58.2635C260.548 59.8515 264.434 60.1338 266.446 58.334C266.897 57.9106 267.14 57.4871 267.279 57.2048C267.695 56.3225 268.146 55.405 268.562 54.5227C269.742 52.1936 270.748 50.2174 271.546 48.7352C273.593 44.818 274.668 42.8065 276.125 40.442C278.172 37.1248 277.999 37.9365 279.595 35.2191C280.219 34.231 281.087 32.7135 282.717 31.0902C283.585 30.2432 284.209 29.8198 284.972 29.5727C285.215 29.5022 287.158 28.9375 288.199 29.9256C289.309 30.949 288.754 33.1723 288.129 35.5014C287.505 37.9012 286.811 39.2069 285.944 41.2184C283.55 46.6884 280.636 54.311 280.185 57.4518C280.115 57.9811 280.081 58.4399 280.046 58.7222C280.844 59.0751 283.723 60.275 286.568 58.9693C287.123 58.7222 287.574 58.4046 287.991 58.0517C289.656 54.4874 291.807 50.0056 294.409 44.818C297.774 37.9717 297.878 39.1363 300.133 35.0074C300.272 34.7604 301.868 31.8666 304.609 30.0668C305.233 29.6786 306.17 29.114 307.315 29.2904C307.731 29.361 308.668 29.5022 309.188 30.3491C309.535 30.9138 309.466 31.549 309.431 31.796C309.05 32.9253 308.46 34.5839 307.766 36.5954C304.852 44.9239 305.476 43.5828 305.06 44.4298C305.06 44.4298 303.429 48.4881 302.076 54.1345C301.868 55.0168 301.521 56.5695 302.354 57.8753C302.874 58.7222 303.742 59.1104 304.262 59.3222C304.956 59.3574 305.893 59.3927 307.003 59.2516C307.246 59.2163 308.39 59.0398 309.778 58.5105C312.346 57.5224 314.392 55.7932 315.26 55.0521C319.492 51.3819 322.545 48.0647 323.309 47.253C325.009 45.4179 326.57 43.6181 327.992 41.8536C328.409 40.8302 327.992 39.8068 327.298 39.4892C326.639 39.2422 325.945 39.7362 325.876 39.7715C324.141 41.5713 322.823 43.1241 321.956 44.2181C320.221 46.3707 318.937 48.1705 316.89 50.1468C315.954 51.0643 315.121 51.7701 314.497 52.2289C313.178 53.3229 312.658 53.6052 312.38 53.7463C311.756 54.064 310.021 54.9462 309.223 54.2757C308.772 53.8875 308.807 53.1464 308.911 52.1936C309.258 48.347 309.813 46.5472 309.813 46.5472C310.264 44.9944 310.403 44.7474 311.929 40.5479C313.178 37.0895 312.866 37.8659 313.282 36.7366C314.566 33.384 315.052 32.7841 315.086 31.2314C315.086 30.4903 315.156 28.7611 314.011 27.5612C313.56 27.0671 312.901 26.7142 311.721 26.4319C307.801 25.5497 304.088 27.42 303.95 27.4906C302.874 28.0553 301.348 29.0787 298.468 32.9959C296.178 36.1014 294.999 38.3952 291.321 45.065C288.095 50.9584 287.123 52.7935 286.95 52.7935C286.776 52.6876 288.129 49.8645 290.419 43.6887C291.321 41.2537 290.905 42.3124 291.98 39.4186C293.264 35.9602 293.784 34.6898 294.097 32.5371C294.374 30.6667 294.513 29.5727 293.923 28.4082C292.987 26.679 291.113 26.1143 290.35 25.9026C287.852 25.1968 285.701 26.1143 284.938 26.4319C283.758 26.9613 282.891 27.6318 281.26 29.3257C279.179 31.4784 277.617 33.1017 275.57 36.2072C273.905 38.7481 274.113 38.9599 271.199 44.2886C269.291 47.8176 267.209 51.2761 266.758 51.8054C266.862 51.5584 267.313 50.7467 267.903 49.4057C269.256 46.3707 269.534 45.065 271.199 40.5479C271.546 39.6304 271.962 38.5364 272.552 37.0895C274.252 32.89 275.293 31.0902 275.328 28.2317C275.328 27.4906 275.258 26.8554 275.189 26.4672C271.199 26.4672 267.14 26.5731 263.15 26.6084C262.595 27.2083 262.456 27.9847 262.769 28.514C262.942 28.8316 263.22 28.9728 263.393 29.0434C264.989 28.9728 266.585 28.9375 268.181 28.9022C268.25 31.3019 267.868 33.2429 267.522 34.478C266.689 37.5483 265.266 39.5951 264.26 41.0773C263.011 42.8418 261.797 44.1122 260.964 44.9591C259.611 46.3355 259.126 46.6178 257.322 48.4529C255.656 50.1468 255.83 50.1468 254.546 51.3819C252.118 53.8169 250.279 55.5814 248.614 55.1227C248.579 55.1227 247.642 54.8756 247.191 54.0287C247.018 53.7111 246.879 53.1817 247.122 51.6642C247.434 50.0409 253.505 34.5839 254.928 30.1727C255.413 28.6552 255.795 27.3495 256.003 26.5025C253.922 26.5378 251.805 26.5378 249.654 26.5731C249.62 28.1258 249.307 33.7017 245.387 36.5249C244.971 36.8425 244.485 37.1248 243.895 37.3718C240.461 37.4071 237.616 37.3718 235.673 37.3718C235.187 37.3718 234.25 37.3718 233.661 36.7013C233.522 36.5249 233.14 36.0308 233.21 34.6898C233.348 32.9606 234.077 31.9725 234.979 30.208C235.395 29.3963 235.95 28.1258 236.506 26.5378C232.308 26.5731 228.075 26.5731 223.877 26.6084C223.738 26.7495 223.183 27.4906 223.322 28.4435C223.357 28.7611 223.461 29.0434 223.565 29.2198C225.265 29.2198 226.965 29.1845 228.665 29.1493C228.283 34.7251 226.444 38.2541 225.195 40.0891C224.467 41.1831 223.357 42.3477 221.171 44.7121C218.604 47.4647 217.077 49.0881 214.545 50.8526C214.163 51.0996 212.498 52.2642 210.104 53.3934C208.82 54.0287 207.606 54.5933 206.045 55.0521C203.408 55.7932 200.424 56.6401 198.204 55.0521C196.816 54.064 196.296 52.5112 195.914 51.3819C195.706 50.6761 195.151 48.7352 195.671 46.3707C195.845 45.6297 196.053 45.0297 196.261 44.6063C198.377 45.2768 203.165 46.3707 208.161 44.2886C213.816 41.8889 219.124 35.6779 217.945 30.9138C217.771 30.1727 217.077 28.1258 215.238 26.9613C213.365 25.7967 211.179 26.1143 209.375 26.3613C208.647 26.4672 207.294 26.7495 205.559 27.4906C202.853 28.6552 201.257 30.208 198.863 32.4665C197.51 33.8075 195.637 35.7838 193.763 38.5364C193.243 39.2775 192.688 40.0891 192.167 41.0773C191.161 42.9476 187.692 49.3351 190.398 54.6639C191.716 57.2401 193.937 58.4399 194.526 58.7928L194.388 58.7575ZM202.922 33.1017C205.906 29.7139 207.571 29.114 208.681 28.9022C209.375 28.7611 211.075 28.4787 212.012 29.4316C213.538 30.949 212.081 34.478 211.596 35.7132C211.179 36.7366 210.138 39.2069 207.467 40.9361C206.808 41.3596 204.865 42.5947 202.332 42.4889C201.5 42.4889 200.32 42.383 199.349 41.536C198.69 40.9714 198.377 40.3009 198.239 39.8774C199.904 36.8072 201.639 34.5486 202.957 33.0664L202.922 33.1017Z" fill="#79A897"/>
</g>
<defs>
<clipPath id="clip0_449_403">
<rect width="369" height="199" fill="white"/>
</clipPath>
</defs>
</svg>
