<svg width="500" height="500" viewBox="0 0 500 500" fill="none" xmlns="http://www.w3.org/2000/svg">
<path d="M368.689 154.718C358.164 154.936 347.681 155.201 337.149 155.138C331.548 155.105 325.956 154.796 320.355 154.77C302.878 154.685 285.43 154.675 267.965 153.867C243.564 152.74 219.353 149.966 195.06 147.568C175.949 145.796 156.828 144.142 137.696 142.607L71.6519 137.081C60.3983 136.143 47.1957 135.692 36.2286 133.842C31.4967 133.043 25.7657 131.48 22.2097 128.066C19.9316 125.88 18.2332 122.844 18.1847 119.629C18.1328 116.196 19.9105 112.668 22.2946 110.278C26.7737 105.787 32.9688 105.22 39.0002 105.284C46.4929 105.362 54.1083 106.923 61.5038 108.005C72.2043 109.552 82.9157 111.023 93.6372 112.418C125.669 116.531 157.783 119.986 189.955 122.781C241.759 127.176 293.678 130.08 345.648 131.49L392.813 132.398C402.515 132.492 412.2 132.345 421.901 132.668C426.101 132.812 430.306 132.826 434.509 132.708C439.669 132.576 445.541 131.806 450.569 133.05C452.471 133.52 454.035 134.44 455.401 135.841C460.87 141.455 461.564 173.092 462.144 182.346C462.365 185.862 463.198 189.411 463.116 192.93C462.985 198.546 460.23 203.702 456.148 207.48C452.67 210.697 449.356 211.967 444.858 213.11C448.161 213.71 451.594 214.097 454.848 214.893C464.186 217.178 470.723 223.346 476.059 231.06C490.219 251.528 490.913 278.057 486.575 301.78C482.693 323.011 456.561 408.94 441.586 419.227C439.285 420.807 436.893 421.315 434.159 420.79C431.044 420.191 428.544 418.302 426.815 415.68C425.336 413.437 424.368 410.8 423.688 408.215C422.288 402.892 421.749 397.223 420.981 391.78C419.571 381.795 418.309 371.795 416.695 361.838C415.979 357.422 415.525 352.385 413.641 348.312C412.758 346.402 411.175 344.547 409.05 344.025C407.995 343.766 407.329 344.078 406.459 344.66C404.688 345.842 403.238 347.491 402.12 349.292C400.614 351.721 399.595 354.665 398.468 357.291C393.173 369.497 388.948 382.14 385.841 395.076C384.418 401.125 383.634 411.007 380.451 416.123C378.461 419.323 374.693 421.428 370.9 420.793C367.455 420.216 363.88 417.936 361.866 415.085C355.129 405.55 352.233 383.14 349.661 371.273C346.055 354.635 341.963 338.085 338.11 321.5C336.528 314.685 335.349 306.058 333.305 299.621C330.079 308.472 326.44 317.166 322.4 325.676C314.518 342.646 283.723 404.531 269.151 411.342C266.671 412.501 263.968 412.61 261.389 411.698C258.365 410.63 256.185 408.086 254.914 405.218C249.341 392.642 258.79 335.783 249.411 332.247C248.135 331.766 246.669 332.075 245.483 332.655C237.311 336.65 222.27 369.023 218.303 378.42C215.673 384.646 213.151 394.817 208.494 399.59C205.953 402.195 202.371 402.842 198.978 401.776C195.499 400.683 192.995 398.106 191.349 394.925C188.615 389.637 187.921 382.816 187.26 376.963C186.608 371.187 186.666 365.442 186.486 359.646C186.294 353.441 185.895 347.211 185.466 341.017C183.768 316.491 180.634 289.152 181.645 264.758C181.981 256.657 183.406 248.298 185.941 240.592C187.968 234.431 190.779 228.258 194.418 222.877C192.266 219.453 189.131 217.265 187.896 213.137C187.334 211.258 187.363 209.297 188.383 207.577C189.335 205.971 192.181 203.461 194.045 203.117C194.41 203.05 194.761 203.005 195.126 202.917C195.136 202.572 190.904 196.255 190.211 193.478C189.144 189.201 190.306 183.918 192.581 180.203C195.501 175.505 200.144 172.135 205.515 170.815C211.384 169.416 218.5 170.503 223.643 173.64C223.671 173.362 223.708 173.085 223.734 172.808C223.984 170.26 224.868 167.815 226.306 165.696C228.483 162.437 231.893 160.206 235.75 159.513C239.951 158.737 244.241 160.086 247.685 162.512C251.349 165.08 253.825 169.012 254.554 173.426C255.254 177.817 254.114 181.161 251.584 184.7C255.123 185.458 258.381 187.441 260.509 190.386C262.938 193.72 263.94 197.883 263.296 201.958C265.503 204.296 286.268 207.168 290.685 207.251C290.816 207.253 290.948 207.248 291.079 207.246C294.313 206.132 296.681 205.358 300.148 206.031C298.476 202.292 297.388 198.453 298.909 194.461C299.928 191.787 301.974 189.483 304.626 188.355C307.944 186.942 311.728 187.33 314.981 188.732C316.624 189.44 318.113 190.448 319.561 191.486C320.935 187.595 321.965 184.378 325.955 182.417C328.931 180.955 332.649 180.858 335.76 181.942C338.661 182.932 341.059 185.021 342.435 187.761C343.803 190.522 343.009 193.407 343.915 196.165C344.789 196.307 345.606 196.112 346.474 196.161C349.28 196.293 351.859 197.742 353.433 200.07C354.959 202.301 355.483 205.197 354.921 207.835C354.184 211.3 351.874 214.411 348.88 216.262C343.936 219.32 340.154 218.028 336.405 219.658C336.433 220.367 336.45 221.072 336.505 221.78C336.676 223.976 335.383 225.636 334.005 227.221C333.289 228.045 332.569 228.74 331.643 229.333C334.904 234.24 336.48 239.706 338.139 245.296C340.319 237.163 347.161 227.613 353.419 222.198C369.909 207.927 394.566 213.002 414.359 214.396C418.359 214.917 422.868 215.008 426.855 214.415L418.06 213.051C408.243 210.966 398.605 207.995 388.594 206.811C383.231 206.177 376.071 207.216 371.318 206.295C369.414 205.926 367.574 205.223 366.529 203.468C365.966 202.525 365.878 201.547 366.164 200.496C366.648 198.726 367.984 197.205 369.099 195.79L372.25 164.301C370.414 160.937 369.041 158.645 368.689 154.718Z" fill="#752346"/>
<path d="M223.643 173.64C223.671 173.362 223.708 173.085 223.734 172.808C223.984 170.26 224.868 167.815 226.306 165.696C228.483 162.437 231.893 160.206 235.75 159.513C239.951 158.737 244.241 160.086 247.685 162.512C251.349 165.08 253.825 169.012 254.554 173.426C255.254 177.817 254.114 181.161 251.584 184.7C255.123 185.458 258.381 187.441 260.509 190.386C262.938 193.72 263.94 197.883 263.296 201.958C265.503 204.296 286.268 207.168 290.685 207.251C290.816 207.253 290.948 207.248 291.079 207.246C294.313 206.132 296.681 205.358 300.148 206.031C298.476 202.292 297.388 198.453 298.909 194.461C299.928 191.787 301.974 189.483 304.626 188.355C307.944 186.942 311.728 187.33 314.981 188.732C316.624 189.44 318.113 190.448 319.561 191.486C320.935 187.595 321.965 184.378 325.955 182.417C328.931 180.955 332.649 180.858 335.76 181.942C338.661 182.932 341.059 185.021 342.435 187.761C343.803 190.522 343.009 193.407 343.915 196.165C344.789 196.307 345.606 196.112 346.474 196.161C349.28 196.293 351.859 197.742 353.433 200.07C354.959 202.301 355.483 205.197 354.921 207.835C354.184 211.3 351.874 214.411 348.88 216.262C343.936 219.32 340.154 218.028 336.405 219.658C336.433 220.367 336.45 221.072 336.505 221.78C336.676 223.976 335.383 225.636 334.005 227.221C333.289 228.045 332.569 228.74 331.643 229.333L329.656 230.433C331.153 233.563 332.591 236.722 333.756 239.993C334.784 242.877 335.945 246.147 335.84 249.237C335.754 251.757 334.688 254.431 334.034 256.858C333.041 260.54 332.158 264.43 331.839 268.235C331.491 272.373 331.46 276.627 331.643 280.775C331.853 285.545 332.861 290.982 331.768 295.671C329.591 305.001 322.779 318.857 318.509 327.84C311.124 343.378 280.299 405.126 266.813 409.481C264.816 410.126 262.973 409.683 261.178 408.667C258.465 407.13 257.03 404.345 256.299 401.423C255.188 396.985 255.551 392.072 255.571 387.526C255.62 376.71 257.61 344.638 255.045 335.972C254.353 333.631 253.066 331.317 250.799 330.192C249.186 329.392 247.054 329.225 245.345 329.8C242.894 330.627 240.735 332.64 239.095 334.58C231.77 343.242 220.55 366.308 215.86 377.448C213.6 382.815 211.971 388.61 209.344 393.796C208.118 396.213 206.375 398.742 203.635 399.547C201.929 400.048 200.165 399.712 198.623 398.875C194.776 396.786 192.78 392.496 191.694 388.452C188.998 378.42 189.238 367.8 188.958 357.508C188.794 351.487 188.36 345.396 188 339.38L185.215 299.07C184.249 285.242 183.04 270.802 184.853 257.017C186.455 244.827 190.483 234.6 196.551 223.977C195.945 223.361 195.21 223.161 194.418 222.877C192.266 219.453 189.131 217.265 187.896 213.137C187.334 211.258 187.363 209.297 188.383 207.577C189.335 205.971 192.181 203.461 194.045 203.117C194.41 203.05 194.761 203.005 195.126 202.917C195.136 202.572 190.904 196.255 190.211 193.478C189.144 189.201 190.306 183.918 192.581 180.203C195.501 175.505 200.144 172.135 205.515 170.815C211.384 169.416 218.5 170.503 223.643 173.64Z" fill="#FEFEFE"/>
<path d="M223.642 173.64C223.671 173.362 223.707 173.085 223.734 172.808C223.984 170.26 224.867 167.815 226.306 165.696C228.482 162.437 231.892 160.206 235.75 159.513C239.951 158.737 244.241 160.086 247.685 162.512C251.349 165.08 253.825 169.012 254.554 173.426C255.254 177.817 254.114 181.161 251.584 184.7C255.122 185.458 258.381 187.441 260.509 190.386C262.937 193.72 263.94 197.883 263.296 201.958C265.502 204.296 286.267 207.168 290.685 207.251C290.816 207.253 290.947 207.248 291.079 207.246C294.312 206.132 296.681 205.358 300.147 206.031C298.476 202.292 297.387 198.453 298.909 194.461C299.927 191.787 301.974 189.483 304.626 188.355C307.944 186.942 311.727 187.33 314.981 188.732C316.624 189.44 318.112 190.448 319.561 191.486C320.935 187.595 321.965 184.378 325.955 182.417C328.931 180.955 332.649 180.858 335.76 181.942C338.661 182.932 341.059 185.021 342.435 187.761C343.802 190.522 343.009 193.407 343.915 196.165C344.789 196.307 345.606 196.112 346.474 196.161C349.28 196.293 351.859 197.742 353.432 200.07C354.959 202.301 355.482 205.197 354.921 207.835C354.184 211.3 351.874 214.411 348.88 216.262C343.936 219.32 340.154 218.028 336.405 219.658C336.432 220.367 336.45 221.072 336.505 221.78C336.676 223.976 335.382 225.636 334.005 227.221C333.289 228.045 332.569 228.74 331.642 229.333L329.656 230.433C326.061 232.756 319.972 235.031 315.625 234.018C312.595 233.312 310.814 231.481 309.202 228.953C308.012 230.246 306.746 231.533 305.091 232.213C303.31 232.945 301.416 232.898 299.667 232.093C296.212 230.505 294.767 227.332 293.524 223.975C282.981 219.416 271.335 216.325 259.832 216.448C252.552 216.526 245.455 217.156 238.177 216.46C237.484 218.708 236.612 220.718 235.141 222.577C232.715 225.64 229.16 227.6 225.275 228.016C220.8 228.527 217.119 226.675 213.689 223.986C212.11 225.283 210.59 226.383 208.585 226.912C204.331 228.033 200.14 226.126 196.551 223.977C195.945 223.361 195.21 223.161 194.417 222.877C192.266 219.453 189.131 217.265 187.896 213.137C187.334 211.258 187.362 209.297 188.382 207.577C189.335 205.971 192.181 203.461 194.045 203.117C194.41 203.05 194.761 203.005 195.126 202.917C195.136 202.572 190.904 196.255 190.211 193.478C189.144 189.201 190.306 183.918 192.581 180.203C195.501 175.505 200.144 172.135 205.515 170.815C211.384 169.416 218.5 170.503 223.642 173.64Z" fill="#F9F871"/>
<path d="M262.484 204.688C262.319 203.824 262.961 202.749 263.296 201.959C265.502 204.296 286.267 207.169 290.685 207.251C290.816 207.254 290.947 207.249 291.079 207.246C290.247 208.148 289.441 208.959 288.466 209.714C288.375 209.964 288.291 210.219 288.197 210.469C287.72 211.744 287.402 212.849 287.541 214.231C287.879 217.604 292.176 219.149 294.585 220.989L294.54 221.318C289.894 221.185 280.806 216.984 275.614 215.716C268.127 213.889 260.524 214.209 252.877 214.165C256.359 212.18 259.314 209.948 261.286 206.345C261.555 205.854 261.786 205.419 262.172 205.006C262.274 204.898 262.38 204.794 262.484 204.688Z" fill="#FEFEFE"/>
<path d="M262.484 204.688C262.319 203.824 262.961 202.749 263.296 201.959C265.502 204.296 286.267 207.169 290.685 207.251C290.816 207.254 290.947 207.249 291.079 207.246C290.247 208.148 289.441 208.959 288.466 209.714C279.649 208.986 270.936 207.3 262.484 204.688Z" fill="#752346"/>
<path d="M238.369 212.638C239.652 213.07 242.116 213.78 242.766 214.895C241.531 215.049 240.074 215.198 238.957 214.596C238.342 213.808 238.414 213.605 238.369 212.638Z" fill="#F9F871"/>
<path d="M254.904 255.47C265.221 258.172 275.961 258.035 286.509 259.192C285.401 263.32 283.505 267.293 281.155 270.855C280.486 271.617 279.811 272.373 279.026 273.018C276.334 275.232 272.991 276.305 269.511 275.951C265.327 275.526 261.65 273.307 259.047 270.042C255.87 266.056 254.374 260.516 254.904 255.47Z" fill="#752346"/>
<path d="M257.098 258.63C260.548 258.986 263.98 259.655 267.431 260.047C272.695 260.647 278.008 260.979 283.289 261.391C282.043 264.226 280.658 266.976 278.964 269.57C277.37 271.399 275.118 272.822 272.734 273.337C269.813 273.967 266.848 273.301 264.358 271.684C259.591 268.589 258.188 263.887 257.098 258.63Z" fill="#F9F871"/>
<path d="M293.027 242.985C293.606 242.928 294.14 242.96 294.716 243.019C299.372 243.523 303.631 245.876 306.534 249.551C307.384 250.613 308.219 251.895 307.997 253.316C307.892 253.993 307.829 254.093 307.317 254.484C305.956 253.874 304.402 250.885 303.256 249.684C302.415 248.801 301.455 248.111 300.455 247.421C300.222 247.295 299.99 247.166 299.751 247.051C296.259 245.375 291.949 244.43 288.346 246.315C286.671 247.191 284.971 248.413 283.161 248.976C282.462 249.194 282.371 249.213 281.729 248.889C281.666 248.025 281.794 247.4 282.42 246.733C284.871 244.12 289.647 243.181 293.027 242.985Z" fill="#752346"/>
<path d="M242.981 235.408C247.951 234.731 252.67 235.965 256.925 238.514C259.123 239.83 261.808 242.488 262.438 245.045L262.08 245.384C259.738 244.881 257.744 242.269 255.9 240.779C254.971 240.184 254 239.603 252.993 239.151C246.11 236.07 243.06 237.628 236.555 240.079C235.681 240.409 234.909 240.558 234.036 240.158L233.913 239.663C234.035 239.368 234.144 239.114 234.34 238.859C236.145 236.508 240.208 235.809 242.981 235.408Z" fill="#752346"/>
<path d="M378.416 215.18C391.456 213.731 405.007 216.871 418.077 217.154C428.091 217.371 438.166 215.597 448.132 216.43C452.311 216.779 456.442 217.605 460.229 219.467C470.961 224.746 478.596 238.532 482.28 249.5C486.794 262.939 486.997 277.956 485.407 291.941C482.847 314.45 473.977 340.329 466.426 361.742C461.899 374.579 457.402 387.466 451.312 399.666C448.101 406.1 443.999 416.169 436.704 418.611C434.742 418.286 432.791 417.91 431.161 416.685C428.749 414.872 427.474 411.71 426.599 408.921C424.906 403.535 424.415 397.61 423.629 392.035C422.387 382.711 421.059 373.4 419.641 364.102C418.996 360.062 418.491 355.906 417.52 351.932C416.686 348.524 415.195 344.222 411.931 342.402C410.259 341.489 408.282 341.314 406.476 341.917C404.156 342.676 402.324 344.532 400.937 346.475C398.737 349.559 397.334 353.217 395.847 356.682C390.622 368.765 386.455 381.277 383.39 394.079C381.93 400.106 381.405 408.969 378.5 414.269C377.086 416.849 375.102 417.824 372.425 418.622C369.99 418.054 368.172 417.374 366.212 415.786C362.132 412.482 360.307 406.012 358.782 401.147C355.126 389.481 353.627 377.095 350.862 365.179L340.86 322.281C338.407 311.397 335.895 300.42 334.672 289.32C332.325 267.996 336.297 246.48 350.056 229.467C357.506 220.255 366.876 216.414 378.416 215.18Z" fill="#FEFEFE"/>
<path d="M371.854 217.785C371.969 217.795 372.084 217.798 372.198 217.815C373.109 217.948 373.538 218.308 374.043 219.049C373.475 220.644 371.271 220.399 369.991 221.261C369.441 221.633 368.964 222.51 368.876 223.156C368.744 224.14 369.239 225.059 369.816 225.814C371.483 227.993 374.183 229.323 376.898 229.405C388.131 229.746 399.448 225.113 410.84 224.871C422.62 224.621 434.013 228.748 445.775 228.37C447.671 228.309 449.798 228.28 451.656 227.938C454.273 227.458 457.318 225.299 459.965 225.665C460.571 226.291 460.526 226.334 460.595 227.213L460.269 227.368C443.619 235.15 426.934 226.471 409.828 227.144C399.998 227.53 380.468 234.039 372.281 230.866C370.139 230.036 368.275 228.349 367.375 226.22C366.626 224.448 366.623 222.459 367.446 220.711C368.311 218.874 370.08 218.38 371.854 217.785Z" fill="#F9F871"/>
<path d="M428.615 256.669C428.912 256.715 429.094 256.733 429.394 256.829C429.881 256.986 430.352 257.276 430.532 257.773C431.237 259.706 430.306 263.658 429.529 265.531C428.104 268.933 425.372 271.62 421.949 272.99C418.357 274.435 414.337 274.394 410.777 272.873C406.445 271.041 404.012 267.71 402.31 263.465C402.145 262.678 401.831 261.499 402.052 260.725C402.214 260.161 402.377 260.111 402.854 259.849C404.665 260.624 405.081 263.646 405.829 265.28C407.017 267.873 409.6 269.864 412.23 270.834C415.317 271.978 418.74 271.8 421.691 270.34C425.136 268.663 427.777 265.45 428.067 261.551C428.184 259.984 427.981 258.381 428.529 256.881C428.555 256.81 428.586 256.739 428.615 256.669Z" fill="#752346"/>
<path d="M401.067 242.33L402.015 242.599C402.374 242.986 402.514 242.994 402.554 243.554C402.681 245.356 400.624 247.725 399.492 249.013C395.809 253.14 390.65 255.654 385.13 256.011C378.801 256.384 373.656 254.165 369.016 249.986C368.527 249.418 368.115 248.804 367.691 248.186C367.637 247.424 367.597 247.366 368.012 246.735C369.995 246.589 372.729 249.97 374.402 251.073C378.182 253.563 383.497 254.203 387.856 253.2C394.174 251.745 397.774 247.561 401.067 242.33Z" fill="#752346"/>
<path d="M459.685 238.275L460.769 238.502C461.146 239.005 461.265 239.124 461.222 239.788C461.074 242.097 458.072 245.325 456.461 246.824C452.717 250.31 447.646 252.52 442.484 252.249C437.255 251.974 433.596 249.415 430.205 245.629C430.025 245.39 429.841 245.149 429.681 244.895C429.171 244.088 429.02 243.454 429.195 242.54L429.872 242.2C431.495 242.584 434.536 246.632 436.521 247.848C439.657 249.783 443.445 250.359 447.015 249.445C452.974 247.937 456.722 243.34 459.685 238.275Z" fill="#752346"/>
<path d="M443.484 143.105C444.312 142.97 445.156 142.89 445.99 142.789C447.091 142.829 448.275 142.779 449.354 142.993C450.259 143.002 451.181 143.052 452.082 142.967C453.632 143.449 454.555 143.864 455.371 145.324C458.934 151.693 459.51 176.372 459.401 184.465C452.862 183.137 443.597 184.674 436.397 184.269C425.064 183.634 413.849 181.505 402.479 181.18L402.189 181.523C401.221 181.834 400.86 181.255 399.969 180.874L399.62 180.729C398.056 180.969 396.492 180.962 394.934 181.167C394.76 181.27 394.494 181.439 394.307 181.5C393.511 181.76 393.13 181.305 392.487 180.903C391.676 181.633 384.862 183.158 383.107 183.938C383.317 176.172 381.007 152.258 384.945 146.943C387.392 143.642 394.746 143.652 398.48 143.23C399.41 143.195 400.304 143.175 401.232 143.263C407.327 142.497 413.949 143.418 420.102 143.482L422.68 143.525C429.616 142.993 436.532 143.092 443.484 143.105Z" fill="#FEFEFE"/>
<path d="M398.48 143.23C399.209 145.4 398.192 153.885 398.141 156.699C398.027 162.884 398.204 175.017 399.62 180.729C398.056 180.969 396.492 180.962 394.934 181.167C394.76 181.27 394.494 181.439 394.308 181.5C393.511 181.76 393.13 181.305 392.487 180.903C391.676 181.633 384.862 183.158 383.107 183.938C383.317 176.172 381.007 152.258 384.945 146.943C387.392 143.642 394.746 143.652 398.48 143.23Z" fill="#FEFEFE"/>
<path d="M392.487 180.902C390.722 176.692 390.085 156.692 391.731 152.447C391.866 152.101 392.176 151.969 392.466 151.75L393.166 151.77C393.552 152.494 393.576 153.186 393.601 153.994C393.866 162.255 393.171 168.87 394.251 177.37C394.392 178.481 394.4 180.18 394.934 181.166C394.76 181.27 394.494 181.439 394.307 181.5C393.511 181.76 393.13 181.305 392.487 180.902Z" fill="#752346"/>
<path d="M398.48 143.23C399.41 143.195 400.304 143.175 401.232 143.263C400.956 148.705 399.986 178.32 402.479 181.18L402.189 181.523C401.221 181.834 400.86 181.255 399.969 180.874L399.62 180.729C398.204 175.016 398.027 162.884 398.141 156.699C398.192 153.885 399.209 145.4 398.48 143.23Z" fill="#752346"/>
<path d="M449.354 142.992C450.259 143.001 451.181 143.051 452.082 142.966C451.03 148.993 452.851 160.326 453.746 166.423C454.302 170.211 455.495 173.998 454.705 177.833L453.655 177.935C450.645 171.433 449.364 150.675 449.354 142.992Z" fill="#752346"/>
<path d="M420.102 143.481L422.68 143.525C421.585 149.369 420.882 155.918 421.002 161.85C421.046 163.941 421.475 166.044 421.475 168.121C421.475 168.988 421.492 169.258 420.88 169.851C420.072 169.95 419.936 169.96 419.199 169.631C417.441 162.469 419.085 150.765 420.102 143.481Z" fill="#752346"/>
<path d="M443.484 143.105C444.313 142.97 445.156 142.89 445.99 142.789C445.965 146.73 446.726 155.188 445.264 158.578L444.679 159.072C444.065 158.882 444.031 158.782 443.63 158.268C443.069 153.349 443.425 148.064 443.484 143.105Z" fill="#752346"/>
<path d="M377.683 203.773C375.264 203.974 371.298 204.665 369.35 202.916C368.916 202.526 368.543 201.9 368.546 201.314C368.554 200.236 369.559 199.315 370.321 198.671C372.134 197.139 374.39 196.171 376.161 194.594C378.493 192.518 380.038 189.615 382.44 187.624C390.063 181.304 404.445 183.476 413.601 184.354C422.769 185.233 431.845 186.624 441.068 186.865C446.063 186.995 451.376 185.813 456.29 186.326C457.533 186.456 459.096 187.045 459.908 188.045C461.141 189.565 460.884 192.231 460.598 194.051C459.731 199.561 456.85 204.126 452.336 207.368C448.25 210.303 442.041 212.388 436.99 212.186C424.048 213.433 409.326 207.923 396.665 205.47C390.37 204.251 384.084 203.864 377.683 203.773Z" fill="#F8C457"/>
<path d="M377.525 202.651C376.554 202.594 376.226 202.681 375.439 202.076L375.283 201.455C375.83 200.672 376.285 200.466 377.226 200.291C390.868 197.761 404.585 201.549 417.676 205.042C423.634 206.632 430.289 208.811 436.509 208.015C448.93 206.426 454.855 193.626 457.466 193.116C457.871 193.755 457.819 194.104 457.608 194.85C456.151 200.005 448.996 205.827 444.396 208.12C441.184 209.721 437.855 210.39 434.309 210.739C430.885 210.29 427.526 209.996 424.138 209.271C407.575 205.731 395.016 200.327 377.525 202.651Z" fill="#FEFEFE"/>
<path d="M380.582 151.86C381.157 152.797 380.444 158.042 380.399 159.454C380.115 168.235 380.631 177.015 380.622 185.799C377.651 188.594 375.802 191.837 372.429 194.335C372.204 194.277 372.047 194.074 371.877 193.919C372.034 189.635 372.92 185.112 373.341 180.814C373.861 175.509 373.995 165.189 375.524 160.493C376.586 157.232 378.539 154.56 380.582 151.86Z" fill="#F9F871"/>
<path d="M149.51 189.705C150.084 184.592 151.018 179.858 155.251 176.434C158.06 174.164 161.769 173.403 165.31 173.822C169.631 174.334 173.018 176.652 175.624 180.063C179.04 184.533 180.29 190.28 179.465 195.814C178.705 201.112 175.91 205.907 171.674 209.178C172.771 211.008 173.721 212.524 173.161 214.749C172.594 217.004 170.719 218.539 168.756 219.599C165.205 221.518 160.726 222.279 156.723 222.248C158.173 224.405 159.486 226.584 160.648 228.91C177.775 263.224 165.421 304.1 154.019 338.274C149.445 351.983 132.776 404.159 120.505 409.92C118.129 411.035 115.271 410.998 112.842 410.053C109.672 408.819 107.483 406.142 106.091 403.12C102.616 395.582 102.161 385.658 101.037 377.47C99.9262 369.079 98.7172 360.702 97.4101 352.339C96.6624 347.659 96.1246 342.579 94.2146 338.215C93.5074 336.599 92.3972 334.46 90.6272 333.858C89.4386 333.453 88.2149 333.827 87.1623 334.424C79.1029 338.999 68.8502 374.514 66.4582 384.198C65.0791 389.782 64.3924 395.558 62.8858 401.094C61.8953 404.733 60.1504 408.335 56.6941 410.207C54.5389 411.393 51.9821 411.61 49.6579 410.804C45.4777 409.323 41.8548 405.645 39.9656 401.688C33.4341 388.007 32.2156 372.43 28.8813 357.815L18.6457 314.273C15.3614 299.883 12.1695 285.45 11.413 270.665C10.8718 260.092 12.1862 249.533 15.7838 239.553C19.2999 229.798 27.8988 214.147 37.5458 209.598C35.8678 207.23 34.3253 204.645 34.8124 201.604C35.2264 199.019 37.1798 196.888 39.2731 195.457C41.9512 193.625 44.7626 192.909 47.9493 192.7C47.4988 189.762 47.3353 187.008 49.2798 184.49C50.9113 182.378 53.5259 181.489 56.0958 181.255C60.8003 180.825 65.1674 182.832 68.6972 185.833C69.9131 186.867 71.0149 188.14 71.9322 189.444C73.8871 185.905 76.5013 183.29 80.4732 182.155C84.3832 181.065 88.5682 181.605 92.0731 183.653C96.0777 185.942 97.9384 189.353 99.0616 193.688L99.1793 194.155C99.7486 194.088 99.7637 194.049 100.202 193.728C104.35 190.68 109.817 189.752 114.865 190.537C119.614 191.274 123.472 193.268 127.241 196.179C128.549 192.514 130.715 189.497 134.318 187.799C138.22 185.96 142.56 186.555 146.483 188.032C147.6 188.452 148.536 189.028 149.51 189.705Z" fill="#FEFEFE"/>
<path d="M149.51 189.705C150.084 184.592 151.018 179.858 155.251 176.434C158.06 174.164 161.769 173.403 165.31 173.822C169.631 174.334 173.018 176.652 175.624 180.063C179.04 184.533 180.29 190.28 179.465 195.814C178.705 201.112 175.91 205.907 171.674 209.178C172.771 211.008 173.721 212.524 173.161 214.749C172.594 217.004 170.719 218.539 168.756 219.599C165.205 221.518 160.726 222.279 156.723 222.248C155.785 222.239 154.629 222.087 153.769 222.494C152.41 221.953 150.763 221.795 149.324 221.432C145.709 220.515 142.619 219.297 139.344 217.525C137.259 218.442 135.091 219.154 132.869 219.655C118.666 222.937 105.007 216.724 90.86 217.192C80.4793 217.535 63.7456 223.507 54.6536 221.694C50.5007 220.867 47.9006 217.249 44.7423 214.777C43.0752 213.473 41.1983 212.373 39.4057 211.249C38.9001 210.499 38.2858 210.102 37.5458 209.598C35.8678 207.23 34.3253 204.645 34.8125 201.604C35.2265 199.019 37.1798 196.888 39.2731 195.457C41.9512 193.625 44.7626 192.909 47.9493 192.7C47.4988 189.762 47.3353 187.008 49.2798 184.49C50.9113 182.378 53.526 181.489 56.0958 181.255C60.8003 180.825 65.1675 182.832 68.6972 185.833C69.9131 186.867 71.015 188.14 71.9322 189.444C73.8871 185.905 76.5013 183.29 80.4732 182.155C84.3832 181.065 88.5682 181.605 92.0731 183.653C96.0777 185.942 97.9385 189.353 99.0616 193.688L99.1793 194.155C99.7486 194.088 99.7637 194.049 100.202 193.728C104.35 190.68 109.817 189.752 114.865 190.537C119.614 191.274 123.472 193.268 127.241 196.179C128.549 192.514 130.715 189.497 134.318 187.799C138.22 185.96 142.56 186.555 146.483 188.032C147.6 188.452 148.536 189.028 149.51 189.705Z" fill="#F9F871"/>
<path d="M68.0474 209.46C74.1206 212.55 77.0019 214.085 83.7831 215.764C77.277 216.529 70.8621 217.994 64.3854 218.979C57.9506 219.765 53.8784 220.29 48.4946 216.13C53.0505 216.901 57.1626 218.099 61.6755 216.201C64.7381 214.914 66.7988 212.485 68.0474 209.46Z" fill="#FEFEFE"/>
<path d="M93.1191 214.094C96.4183 213.5 99.7908 212.45 102.827 211.027C104.786 213.107 106.86 215.002 108.993 216.899C103.544 215.664 98.0569 215.22 92.4873 214.997L93.1191 214.094Z" fill="#FEFEFE"/>
<path d="M134.665 212.735C135.845 213.434 136.7 214.91 137.522 215.995C135.009 216.732 132.469 217.325 129.919 217.922C129.062 218.153 128.382 218.322 127.494 218.249C128.322 216.8 133.025 214.175 134.665 212.735Z" fill="#FEFEFE"/>
<path d="M87.999 214.725C89.6633 214.434 91.427 213.997 93.1194 214.094L92.4876 214.997C90.9889 215.13 89.4875 214.891 87.999 214.725Z" fill="#F9F871"/>
<path d="M37.5458 209.598C38.2858 210.101 38.9001 210.499 39.4057 211.249C27.2738 218.499 19.2877 234.571 15.9311 247.924C13.3911 258.026 13.4433 268.501 14.5181 278.805C15.7262 290.388 18.4812 301.96 21.0739 313.301L30.6236 354.085C33.3054 365.489 34.6889 377.299 37.8569 388.556C39.1484 393.145 40.7856 397.938 43.2453 402.035C45.1228 405.164 47.7271 407.695 51.3581 408.551C51.8393 408.664 52.3224 408.766 52.8074 408.861C55.1176 408.144 57.3009 407.35 58.5518 405.098C61.7864 399.271 62.2224 390.504 63.8016 383.978C66.5343 372.685 75.7227 343.534 82.4109 335.078C83.6387 333.525 85.2121 332.228 87.1351 331.654C88.9481 331.099 90.9084 331.298 92.5724 332.208C95.8547 333.993 97.0158 337.556 97.9066 340.931C98.9119 344.741 99.3842 348.755 100.021 352.645C101.521 362.263 102.898 371.9 104.151 381.553C105 387.786 105.587 394.124 107.701 400.093C108.652 402.775 110.222 405.769 112.767 407.239C114.495 408.236 116.822 408.458 118.729 407.878C124.153 406.233 129.826 393.461 132.199 388.595C138.809 375.041 143.598 360.729 148.488 346.493C159.623 314.076 173.858 273.029 162.144 239.253C160.106 233.376 157.384 227.571 153.769 222.494C154.629 222.086 155.785 222.239 156.723 222.248C158.173 224.405 159.486 226.584 160.648 228.91C177.775 263.224 165.421 304.1 154.019 338.274C149.445 351.983 132.776 404.159 120.505 409.92C118.129 411.035 115.271 410.998 112.842 410.053C109.672 408.819 107.483 406.141 106.091 403.12C102.616 395.581 102.161 385.658 101.037 377.47C99.9262 369.079 98.7172 360.701 97.4101 352.339C96.6624 347.659 96.1246 342.579 94.2146 338.215C93.5074 336.599 92.3972 334.46 90.6272 333.858C89.4386 333.453 88.2149 333.826 87.1623 334.424C79.1029 338.999 68.8502 374.514 66.4582 384.198C65.0791 389.781 64.3924 395.558 62.8858 401.094C61.8953 404.733 60.1504 408.335 56.6941 410.206C54.5389 411.393 51.9821 411.61 49.6579 410.804C45.4777 409.323 41.8548 405.645 39.9656 401.688C33.4341 388.006 32.2156 372.43 28.8813 357.815L18.6457 314.273C15.3614 299.883 12.1695 285.45 11.413 270.665C10.8718 260.091 12.1862 249.533 15.7838 239.553C19.2999 229.798 27.8988 214.146 37.5458 209.598Z" fill="#752346"/>
<path d="M81.754 247.334C82.2187 247.528 82.6467 247.618 82.9321 248.069C84.0246 249.796 83.6833 253.684 86.3501 257.105C88.1643 259.431 90.634 260.73 93.5475 261.074C97.8156 261.578 103.464 259.853 105.559 255.751C106.629 253.658 107.12 249.789 108.962 248.359L109.442 248.519C109.925 249.659 109.799 250.583 109.704 251.78C109.047 254.423 108.078 256.681 106.29 258.77C103.823 261.651 100.443 263.336 96.6612 263.611C92.77 263.911 88.9192 262.65 85.9596 260.106C83.2742 257.779 81.1203 254.3 80.8928 250.704C80.8092 249.384 80.8437 248.364 81.754 247.334Z" fill="#752346"/>
<path d="M118.197 232.133C118.542 232.125 118.878 232.115 119.222 232.15C120.554 232.283 121.761 232.995 122.523 234.096C123.532 235.531 123.718 237.373 123.397 239.062C122.993 241.188 122.05 242.302 120.287 243.441C119.773 243.457 119.25 243.467 118.742 243.373C117.542 243.151 116.55 242.427 115.871 241.426C114.91 240.007 114.758 238.226 115.075 236.578C115.491 234.417 116.45 233.318 118.197 232.133Z" fill="#752346"/>
<path d="M69.2889 231.267C70.5532 231.227 71.7152 231.177 72.8449 231.847C74.5275 232.844 74.973 234.887 75.4511 236.635C74.8459 239.054 74.4165 240.579 72.3262 242.083C71.8192 242.214 71.2886 242.357 70.761 242.345C69.644 242.319 68.5514 241.697 67.8365 240.859C66.7666 239.607 66.4854 237.852 66.6186 236.254C66.8047 234.023 67.6725 232.695 69.2889 231.267Z" fill="#752346"/>
<path d="M125.665 79.0508L300.9 89.4998L344.751 92.1037L360.761 93.157C363.331 93.3254 366.228 93.1534 368.704 93.926C369.761 94.2562 369.899 94.6379 370.398 95.5438C368.613 95.7408 366.851 95.8563 365.055 95.8298C358.821 95.7377 352.579 95.1383 346.361 94.7208L324.691 93.4342L261.249 89.6474L174.216 84.4585C159.046 83.5968 143.69 83.0523 128.568 81.8433C127.184 81.7327 125.681 81.6727 124.679 80.6318C124.773 79.732 125.03 79.6618 125.665 79.0508Z" fill="#F8C457"/>
<path d="M196.976 100.21C204.031 100.52 211.138 101.347 218.183 101.927L252.69 104.469C296.388 107.553 340.123 110.083 383.885 112.059C388.844 112.285 431.264 113.607 432.456 114.532C432.596 115.401 432.466 115.631 432.17 116.436C427.018 116.74 421.655 116.023 416.503 115.751L385.955 114.161C366.99 113.152 201.156 105.035 197.025 102.372C196.631 101.42 196.77 101.192 196.976 100.21Z" fill="#F8C457"/>
</svg>
