<svg width="172" height="154" viewBox="0 0 172 154" fill="none" xmlns="http://www.w3.org/2000/svg">
<g clip-path="url(#clip0_82_90)">
<mask id="mask0_82_90" style="mask-type:luminance" maskUnits="userSpaceOnUse" x="0" y="0" width="172" height="154">
<path d="M172 0H0V154H172V0Z" fill="white"/>
</mask>
<g mask="url(#mask0_82_90)">
<mask id="mask1_82_90" style="mask-type:luminance" maskUnits="userSpaceOnUse" x="34" y="83" width="43" height="66">
<path d="M76.85 83.4277H34V148.658H76.85V83.4277Z" fill="white"/>
</mask>
<g mask="url(#mask1_82_90)">
<path d="M46.6802 148.658C45.8702 148.658 45.1102 148.317 44.4302 147.647C40.8102 144.077 39.9702 131.717 40.1402 126.627C40.2602 123.187 39.3402 120.987 38.2902 118.447C37.5702 116.717 36.8302 114.937 36.3302 112.577C34.1902 102.377 39.8402 97.0577 43.9002 96.1077C46.7302 95.4477 48.9102 96.3277 51.0202 97.1877C52.6502 97.8477 54.3402 98.5377 56.3602 98.4977C57.8602 98.4677 59.4702 97.9077 61.0302 97.3677C63.3802 96.5477 65.8202 95.6977 68.1302 96.5477C71.0102 97.6077 74.4002 100.917 74.8602 104.397C75.3002 107.727 74.5602 111.087 73.7002 114.207C73.4202 115.217 73.0702 116.247 72.7302 117.237C72.0302 119.307 71.3002 121.447 71.1602 123.597C71.0602 125.167 71.1402 126.787 71.2202 128.357C71.3202 130.257 71.4202 132.217 71.1902 134.157C70.3102 141.707 68.9502 146.247 67.1502 147.647C66.6602 148.027 66.1302 148.197 65.5702 148.127C62.2202 148.097 61.7102 143.997 61.4602 142.017C60.8702 137.207 60.0402 132.087 58.4602 130.567C57.4602 129.617 56.1702 129.267 55.1602 129.677C51.2502 131.297 50.5102 138.437 50.1502 141.867C50.0802 142.597 50.0202 143.167 49.9502 143.567C49.6602 145.177 49.0702 148.537 46.8202 148.647C46.7702 148.647 46.7202 148.647 46.6802 148.647V148.658ZM45.8702 96.8577C45.3102 96.8577 44.7402 96.9177 44.1202 97.0677C40.4202 97.9377 35.2902 102.857 37.2902 112.377C37.7702 114.647 38.4902 116.387 39.1902 118.067C40.2502 120.607 41.2402 122.997 41.1202 126.657C40.9402 131.997 41.9502 143.827 45.1102 146.947C45.6402 147.467 46.1802 147.707 46.7702 147.677C48.2302 147.607 48.7802 144.557 48.9802 143.407C49.0402 143.047 49.1002 142.457 49.1702 141.787C49.5702 137.887 50.3202 130.627 54.7802 128.787C56.1402 128.227 57.8502 128.647 59.1302 129.877C60.5902 131.267 61.5402 134.757 62.4302 141.917C62.7702 144.647 63.3802 147.167 65.5902 147.167C65.6102 147.167 65.6302 147.167 65.6502 147.167C65.9502 147.207 66.2302 147.117 66.5302 146.887C67.4302 146.187 69.0902 143.597 70.2002 134.057C70.4202 132.197 70.3202 130.277 70.2202 128.417C70.1402 126.827 70.0502 125.177 70.1602 123.547C70.3102 121.267 71.0602 119.067 71.7802 116.937C72.1102 115.957 72.4602 114.947 72.7302 113.967C73.5702 110.937 74.2902 107.707 73.8702 104.547C73.4702 101.517 70.3902 98.4577 67.7702 97.4877C65.7902 96.7577 63.6202 97.5077 61.3302 98.3077C59.7002 98.8777 58.0202 99.4677 56.3602 99.4977C54.1502 99.5377 52.3602 98.8177 50.6402 98.1177C49.0802 97.4877 47.5902 96.8777 45.8602 96.8777L45.8702 96.8577Z" fill="#752346" fill-opacity="0.25"/>
<path d="M57.6899 102.298C56.7899 102.298 55.9199 102.198 55.1499 102.108C53.5699 101.928 52.1699 101.698 51.0099 100.838C50.9399 100.788 50.9199 100.678 50.9799 100.608C51.0299 100.538 51.1399 100.518 51.2099 100.578C52.2999 101.388 53.6499 101.598 55.1899 101.778C56.6199 101.948 58.4099 102.148 59.9999 101.658C60.9599 101.358 61.8499 100.818 62.7199 100.288C62.7999 100.238 62.8999 100.268 62.9499 100.338C62.9999 100.418 62.9699 100.518 62.8999 100.568C62.0199 101.108 61.1099 101.658 60.1099 101.968C59.3299 102.208 58.5099 102.288 57.7099 102.288L57.6899 102.298Z" fill="#752346" fill-opacity="0.25"/>
<path d="M65.39 101.427C63.92 101.427 62.45 101.167 61.1 100.887C59.35 100.527 57.59 100.108 55.89 99.7079C52.04 98.7979 48.07 97.8579 44.09 97.5279C42.82 97.4179 41.48 97.3879 40.3 97.7979C39.33 98.1379 38.49 98.7679 37.59 99.4379C36.69 100.108 35.76 100.808 34.67 101.198C34.51 101.258 34.33 101.228 34.2 101.118C34.07 101.008 34 100.847 34.02 100.677C34.46 97.0579 35.7 93.5179 36.68 91.7579C39.05 87.4479 43.94 84.6079 48.81 84.6979C51.77 84.7479 54.6 85.7779 57.33 86.7779C60.08 87.7779 62.92 88.8279 65.82 88.7879C69.64 88.7579 73.4 86.7879 75.62 83.6379C75.73 83.4779 75.93 83.3979 76.12 83.4379C76.31 83.4779 76.46 83.6279 76.5 83.8179C77.66 89.1679 75.85 95.0279 71.87 98.7679C70.86 99.7179 69.87 100.388 68.86 100.798C67.74 101.258 66.56 101.427 65.39 101.427ZM42.63 96.4779C43.15 96.4779 43.66 96.5079 44.17 96.5479C48.23 96.8879 52.24 97.8279 56.12 98.7479C57.82 99.1479 59.57 99.5679 61.31 99.9179C63.6 100.387 66.23 100.817 68.5 99.8879C69.4 99.5179 70.29 98.9179 71.21 98.0479C74.68 94.7879 76.39 89.8079 75.74 85.0879C73.29 87.9679 69.59 89.7379 65.83 89.7679C65.8 89.7679 65.76 89.7679 65.73 89.7679C62.69 89.7679 59.8 88.7179 57 87.6979C54.35 86.7279 51.6 85.7279 48.8 85.6779C44.27 85.6079 39.74 88.2279 37.53 92.2379C36.68 93.7779 35.61 96.7579 35.11 99.9279C35.76 99.5779 36.37 99.1279 37 98.6479C37.91 97.9679 38.85 97.2579 39.97 96.8679C40.83 96.5679 41.74 96.4679 42.63 96.4679V96.4779Z" fill="#752346" fill-opacity="0.25"/>
</g>
<mask id="mask2_82_90" style="mask-type:luminance" maskUnits="userSpaceOnUse" x="101" y="23" width="59" height="41">
<path d="M159.125 23.2334H101.734V63.4796H159.125V23.2334Z" fill="white"/>
</mask>
<g mask="url(#mask2_82_90)">
<path d="M146.761 63.4793C144.967 63.4793 143.174 63.2929 141.433 63.065C140.342 62.9199 139.23 62.7128 138.15 62.5056C135.895 62.0808 133.567 61.6354 131.322 61.7908C129.675 61.9047 128.008 62.2259 126.393 62.5263C124.431 62.8992 122.407 63.2825 120.362 63.324C112.391 63.5001 107.483 62.7438 105.763 61.0967C105.291 60.6409 105.049 60.1229 105.039 59.5531C104.578 56.1035 108.773 55.0054 110.797 54.4667C115.705 53.1718 120.907 51.5971 122.26 49.7635C123.11 48.6033 123.288 47.2255 122.711 46.2517C120.467 42.4705 112.947 42.7191 109.329 42.8435C108.563 42.8745 107.965 42.8952 107.535 42.8745C105.815 42.8124 102.239 42.6777 101.809 40.3883C101.641 39.5077 101.882 38.6272 102.511 37.7881C105.7 33.5614 118.422 30.9509 123.729 30.4018C127.326 30.0289 129.466 28.7858 131.962 27.3355C133.65 26.3513 135.402 25.3361 137.772 24.497C148.072 20.8401 154.396 25.8851 155.969 29.9253C157.06 32.7327 156.462 35.105 155.875 37.3841C155.424 39.1555 154.952 40.9891 155.287 43.0506C155.529 44.5838 156.347 46.1585 157.133 47.6813C158.329 49.9811 159.556 52.3534 159 54.85C158.308 57.9474 155.371 61.9047 151.805 62.8785C150.159 63.3343 148.46 63.4897 146.771 63.4897L146.761 63.4793ZM132.297 60.7445C134.332 60.7445 136.367 61.1278 138.349 61.5111C139.408 61.7183 140.51 61.9254 141.569 62.0601C144.831 62.4848 148.302 62.7645 151.522 61.884C154.606 61.0449 157.353 57.4502 157.983 54.6221C158.455 52.488 157.364 50.3747 156.2 48.1371C155.371 46.5418 154.522 44.905 154.249 43.206C153.892 40.9373 154.385 39.0105 154.857 37.1354C155.424 34.9082 155.969 32.7949 154.983 30.2879C153.546 26.6103 147.704 22.0522 138.097 25.4604C135.811 26.2684 134.112 27.2629 132.455 28.216C129.969 29.656 127.62 31.0234 123.813 31.4171C118.233 31.9868 106.098 34.7113 103.308 38.3993C102.847 39.0105 102.679 39.601 102.795 40.2018C103.078 41.6936 106.329 41.8179 107.546 41.8593C107.934 41.8697 108.552 41.8593 109.266 41.8282C113.377 41.6832 121.023 41.4242 123.582 45.7337C124.368 47.0494 124.169 48.8623 123.078 50.354C121.841 52.0529 118.359 53.524 111.049 55.4508C108.269 56.1863 105.731 57.1705 106.056 59.4392C106.056 59.4599 106.056 59.4806 106.056 59.5013C106.056 59.8121 106.193 60.0918 106.476 60.3612C107.325 61.1796 110.262 62.5263 120.331 62.2984C122.292 62.2569 124.274 61.884 126.193 61.5214C127.84 61.2106 129.539 60.8895 131.249 60.7652C131.595 60.7445 131.951 60.7341 132.297 60.7341V60.7445Z" fill="#752346" fill-opacity="0.25"/>
<path d="M118.18 63.3552C111.489 63.3552 107.315 62.599 105.763 61.0968C105.291 60.641 105.049 60.1231 105.039 59.5533C104.577 56.1036 108.773 55.0055 110.797 54.4668C115.705 53.1719 120.907 51.5973 122.26 49.7637C123.11 48.6034 123.288 47.2256 122.711 46.2519C120.467 42.4603 112.947 42.7193 109.328 42.8436C108.563 42.8747 107.965 42.8954 107.535 42.8747C105.815 42.8125 102.239 42.6779 101.809 40.3884C101.641 39.5079 101.882 38.6273 102.511 37.7882C105.7 33.5616 118.422 30.951 123.729 30.402C125.05 30.2673 126.267 29.998 127.441 29.5836C127.62 29.5214 127.819 29.5629 127.955 29.6768C128.092 29.8012 128.155 29.9876 128.123 30.1637C127.473 33.1369 127.42 36.2136 127.976 39.0624C128.259 40.5024 128.668 41.8802 129.193 43.1544C129.591 44.1282 130.074 45.0916 130.535 46.0343C130.787 46.5419 131.039 47.0495 131.28 47.5571C132.077 49.2561 132.581 50.7167 132.843 52.1256C133.136 53.6588 133.241 55.2852 133.168 56.9531C133.105 58.2998 132.948 59.7294 132.664 61.3248C132.622 61.563 132.413 61.7495 132.161 61.7495C131.846 61.7495 131.584 61.7598 131.353 61.7806C129.707 61.8945 128.039 62.2157 126.424 62.5161C124.463 62.889 122.439 63.2723 120.393 63.3138C119.638 63.3345 118.915 63.3345 118.212 63.3345L118.18 63.3552ZM112.118 41.7662C116.261 41.7662 121.547 42.2946 123.592 45.7339C124.379 47.0495 124.18 48.8624 123.089 50.3542C121.851 52.0531 118.369 53.5241 111.059 55.451C108.28 56.1865 105.742 57.1706 106.067 59.4393C106.067 59.4601 106.067 59.4808 106.067 59.5119C106.067 59.8226 106.203 60.1023 106.486 60.3717C107.336 61.1901 110.272 62.5368 120.341 62.3089C122.302 62.2675 124.284 61.8945 126.204 61.5319C127.85 61.2212 129.549 60.9 131.259 60.7757C131.395 60.7757 131.542 60.755 131.7 60.755C131.93 59.3668 132.067 58.1133 132.119 56.922C132.192 55.337 132.088 53.7935 131.804 52.3224C131.553 50.9964 131.081 49.6186 130.315 47.9922C130.074 47.4846 129.833 46.9874 129.581 46.4901C129.109 45.5371 128.627 44.5529 128.217 43.5481C127.672 42.2117 127.242 40.7717 126.948 39.2593C126.414 36.5037 126.403 33.6652 126.927 30.806C125.942 31.0961 124.914 31.2929 123.833 31.4069C118.254 31.9766 106.119 34.7011 103.329 38.3891C102.868 39.0003 102.7 39.5908 102.815 40.1916C103.099 41.6834 106.35 41.8077 107.566 41.8491C107.955 41.8595 108.573 41.8491 109.287 41.818C110.115 41.787 111.08 41.7559 112.129 41.7559L112.118 41.7662Z" fill="#752346" fill-opacity="0.25"/>
<path d="M154.185 50.0955C154.185 50.0955 154.091 50.0748 154.049 50.0333C153.367 49.2046 152.654 48.3551 152.192 47.371C151.416 45.7342 151.374 43.8384 151.343 42.3156C151.301 40.6685 151.343 39.1974 152.066 37.8921C152.108 37.8093 152.213 37.7782 152.297 37.83C152.381 37.8714 152.412 37.975 152.36 38.0579C151.678 39.2907 151.647 40.7099 151.678 42.3052C151.71 43.797 151.752 45.6617 152.496 47.2259C152.947 48.1687 153.64 49.0078 154.311 49.8158C154.374 49.8883 154.363 49.9919 154.29 50.0541C154.258 50.0748 154.216 50.0955 154.185 50.0955Z" fill="#752346" fill-opacity="0.25"/>
<path d="M115.349 35.4883C115.265 35.4883 115.191 35.4261 115.181 35.3433C115.16 35.25 115.223 35.1672 115.317 35.1464C115.936 35.0428 116.565 34.9082 117.163 34.7942C117.761 34.6699 118.38 34.5456 118.988 34.442C120.844 34.1209 122.743 33.9551 124.631 33.9551C124.725 33.9551 124.809 34.0276 124.809 34.1209C124.809 34.2141 124.735 34.2866 124.641 34.2866C122.774 34.2866 120.897 34.4524 119.061 34.7631C118.453 34.8667 117.845 34.991 117.247 35.1154C116.639 35.2397 116.009 35.364 115.391 35.4779C115.391 35.4779 115.37 35.4779 115.359 35.4779L115.349 35.4883Z" fill="#752346" fill-opacity="0.25"/>
<path d="M121.988 36.8663C121.904 36.8663 121.83 36.8041 121.82 36.7109C121.809 36.6177 121.872 36.5348 121.967 36.5244L124.557 36.2344C124.652 36.2344 124.735 36.2862 124.746 36.3794C124.746 36.4726 124.693 36.5555 124.599 36.5659L122.009 36.8559C122.009 36.8559 121.998 36.8559 121.988 36.8559V36.8663Z" fill="#752346" fill-opacity="0.25"/>
<path d="M124.305 59.9467C124.222 59.9467 124.148 59.8845 124.138 59.8016C124.127 59.7084 124.19 59.6255 124.284 59.6048L130.011 58.6828C130.105 58.6725 130.189 58.7346 130.21 58.8278C130.221 58.9211 130.158 59.004 130.063 59.0247L124.337 59.9467C124.337 59.9467 124.316 59.9467 124.305 59.9467Z" fill="#752346" fill-opacity="0.25"/>
<path d="M119.911 60.4644C119.817 60.4644 119.743 60.3918 119.743 60.309C119.743 60.2157 119.806 60.1329 119.901 60.1225L121.914 59.9775C122.009 59.9775 122.093 60.0396 122.103 60.1329C122.103 60.2261 122.04 60.309 121.946 60.3193L119.932 60.4644C119.932 60.4644 119.932 60.4644 119.921 60.4644H119.911Z" fill="#752346" fill-opacity="0.25"/>
</g>
<mask id="mask3_82_90" style="mask-type:luminance" maskUnits="userSpaceOnUse" x="15" y="0" width="149" height="147">
<path d="M15.3521 45.6059L120.041 146.509L163.997 100.904L59.308 0.000717382L15.3521 45.6059Z" fill="white"/>
</mask>
<g mask="url(#mask3_82_90)">
<path d="M77.006 29.7528C77.043 29.8441 77.0801 29.9354 77.1102 30.0338C77.3598 30.9132 76.961 31.9178 76.1511 32.4843C75.5226 32.9202 74.7969 33.068 74.0922 33.2083L73.9866 33.2314C70.1461 33.9882 66.4868 35.364 63.1212 37.3284C63.0022 37.3942 62.8611 37.411 62.7261 37.3781C62.5981 37.338 62.4831 37.2411 62.4242 37.1149L50.9008 12.3974C50.8347 12.2643 50.8388 12.1015 50.9072 11.973C50.9755 11.8444 51.1009 11.7431 51.2418 11.7122C55.0319 10.9069 58.6716 9.2344 61.7615 6.89314C62.3892 6.41481 64.2933 4.97236 65.7449 6.21864C66.5569 6.91798 66.6477 8.00543 66.7291 8.97283C66.8011 9.80604 66.8581 10.5971 67.3333 11.0551C67.4413 11.1592 67.5845 11.2556 67.7277 11.352C67.8995 11.462 68.0784 11.5789 68.244 11.7385C69.043 12.4947 69.0977 13.5474 69.1448 14.565C69.1794 15.2928 69.2132 15.9782 69.5062 16.5244C69.748 16.9796 70.1789 17.3395 70.6456 17.7198C71.3137 18.2804 72.0103 18.8546 72.1902 19.7919C72.2911 20.278 72.2079 20.7534 72.145 21.1789C72.0755 21.6257 72.0118 22.0088 72.1384 22.353C72.2793 22.7111 72.6167 22.9807 72.9898 23.2708C73.4634 23.644 73.9875 24.0658 74.1769 24.7483C74.2986 25.2128 74.2287 25.6455 74.1581 26.0358C74.1068 26.3196 74.0624 26.5962 74.1092 26.8358C74.2117 27.4068 74.7627 27.7573 75.3929 28.1842C75.9943 28.5833 76.6744 29.0305 76.9919 29.7531L77.006 29.7528ZM63.0937 36.2186C66.4256 34.3467 70.0292 33.0144 73.7992 32.2731L73.9048 32.2499C74.539 32.1251 75.1311 32.0151 75.5848 31.6885C75.9827 31.4054 76.3119 30.8477 76.1606 30.313C76.009 29.7641 75.4436 29.3997 74.8494 29.0075C74.1335 28.5398 73.3243 27.996 73.1367 27.0235C73.0585 26.6147 73.1291 26.2245 73.1863 25.8769C73.2369 25.5506 73.2882 25.2668 73.22 25.0205C73.1212 24.6475 72.7695 24.364 72.3676 24.0461C71.9369 23.7004 71.4488 23.3134 71.2186 22.7165C70.9886 22.1337 71.0838 21.5449 71.1662 21.0271C71.2302 20.6582 71.2802 20.3037 71.2179 19.9936C71.1008 19.3947 70.5909 18.9726 70.0021 18.4884C69.4922 18.0664 68.9607 17.6236 68.6309 17.0002C68.2284 16.265 68.1917 15.4241 68.1558 14.6256C68.118 13.7281 68.0754 12.951 67.5714 12.4652C67.4634 12.3611 67.3274 12.2717 67.1842 12.1753C67.0124 12.0653 66.8191 11.9345 66.6463 11.7679C65.9046 11.0532 65.8144 9.99394 65.7335 9.05482C65.6613 8.20748 65.604 7.4023 65.0938 6.96615C64.5047 6.46779 63.6389 6.68884 62.3416 7.67456C59.3006 9.97956 55.7529 11.6574 52.0349 12.5321L63.0724 36.2119L63.0937 36.2186Z" fill="#752346" fill-opacity="0.25"/>
<path d="M66.5593 10.5033C66.5889 10.5735 66.5691 10.6517 66.5134 10.6951C64.1502 12.5562 61.547 14.0611 58.7743 15.1942C58.69 15.224 58.5902 15.1834 58.5604 15.0991C58.5305 15.0148 58.5642 14.9223 58.6555 14.8852C61.4001 13.7667 63.9681 12.2696 66.3105 10.4301C66.3801 10.3723 66.4866 10.3915 66.5372 10.4542C66.5444 10.4612 66.5588 10.4751 66.5591 10.4892L66.5593 10.5033Z" fill="#752346" fill-opacity="0.25"/>
<path d="M68.8715 15.8574C68.9011 15.9276 68.8813 16.0057 68.8186 16.0564C67.7789 16.8181 66.6813 17.5102 65.5469 18.1252C65.4628 18.1691 65.3703 18.1355 65.3194 18.0586C65.2754 17.9746 65.309 17.882 65.3859 17.8311C66.4992 17.2236 67.5898 16.5387 68.6157 15.7914C68.6926 15.7404 68.7918 15.7528 68.8427 15.8296C68.8499 15.8366 68.8571 15.8435 68.8643 15.8504L68.8715 15.8574Z" fill="#752346" fill-opacity="0.25"/>
<path d="M73.9507 27.4326C73.9805 27.517 73.9469 27.6095 73.8628 27.6535C71.8839 28.4962 69.8552 29.3186 67.8398 30.0983C67.7555 30.1281 67.663 30.0945 67.6259 30.0032C67.5961 29.9189 67.6367 29.8191 67.721 29.7893C69.7292 29.0026 71.751 28.1875 73.7298 27.3448C73.8141 27.3149 73.9067 27.3486 73.9435 27.4257L73.9507 27.4326Z" fill="#752346" fill-opacity="0.25"/>
<path d="M63.5535 18.9392C63.5903 19.0163 63.5567 19.1089 63.4795 19.1457L61.9662 19.9232C61.8822 19.9672 61.7896 19.9336 61.7457 19.8495C61.7089 19.7724 61.7353 19.6729 61.8194 19.6289L63.3327 18.8514C63.4167 18.8074 63.5093 18.841 63.5533 18.9251L63.5535 18.9392Z" fill="#752346" fill-opacity="0.25"/>
<path d="M122.71 138.984C124.046 141.979 123.061 143.822 121.787 144.511C120.624 145.126 119.68 145.313 118.897 145.073C117.873 144.752 117.374 143.786 116.971 143.008C116.172 141.474 112.803 133.686 108.121 122.909C100.942 106.365 91.1185 83.7022 84.16 68.7594C82.8567 65.9615 78.184 61.0829 73.6697 56.3569C69.3791 51.8743 65.3336 47.6418 64.2219 45.2648C61.8805 40.2442 60.2084 36.2438 58.4333 32.019C56.6877 27.8643 54.883 23.5693 52.3861 18.1768C51.3405 15.9329 50.4402 13.8985 49.9685 11.7077C49.8218 11.0386 49.7226 10.2625 50.1207 9.60447C50.3743 9.16839 50.8216 8.87726 51.3568 8.75425C52.019 8.61475 52.7857 8.77036 53.3447 9.17026C54.2547 9.81122 54.7056 10.8708 55.0678 11.7199C60.6772 24.8346 63.4091 30.7038 68.8653 42.4069L69.285 43.3115C70.2056 45.296 74.3576 49.5478 78.3727 53.6677C83.3825 58.8018 88.5654 64.1166 89.3851 66.7677C91.4902 73.5466 114.383 121.542 121.909 137.309L122.607 138.774C122.644 138.851 122.681 138.928 122.711 138.998L122.71 138.984ZM116.551 139.784C117.171 141.173 117.613 142.126 117.832 142.547C118.236 143.324 118.601 143.94 119.177 144.12C119.689 144.28 120.407 144.112 121.311 143.621C121.647 143.445 123.24 142.383 121.71 139.172L121.011 137.707C113.478 121.919 90.5699 73.8818 88.4352 67.0328C87.6762 64.6068 82.3563 59.146 77.6564 54.3244C73.3962 49.9544 69.3738 45.8276 68.3727 43.6961L67.953 42.7915C62.4966 31.0742 59.7575 25.1981 54.1408 12.0764C53.7419 11.1502 53.3885 10.393 52.7508 9.945C52.4139 9.70368 51.9383 9.60635 51.5368 9.69154C51.3465 9.73041 51.0938 9.83409 50.9427 10.0773C50.7233 10.4491 50.8038 10.9851 50.9047 11.4713C51.3989 13.7253 52.4229 15.9483 53.255 17.7364C55.7662 23.1429 57.5712 27.452 59.3168 31.6066C61.092 35.8314 62.7637 39.8177 65.0977 44.8172C66.1358 47.04 70.3184 51.4185 74.3639 55.651C78.9358 60.4325 83.6592 65.3739 85.0358 68.3118C92.0018 83.2757 101.833 105.945 109.012 122.489C112.24 129.948 114.98 136.255 116.558 139.791L116.551 139.784Z" fill="#752346" fill-opacity="0.25"/>
<mask id="mask4_82_90" style="mask-type:luminance" maskUnits="userSpaceOnUse" x="112" y="77" width="19" height="23">
<path d="M130.011 77.4277H112.001V99.1477H130.011V77.4277Z" fill="white"/>
</mask>
<g mask="url(#mask4_82_90)">
<path d="M121.341 99.1481C121.131 99.1481 120.941 98.9981 120.881 98.7981C120.811 98.5581 120.731 98.2681 120.651 97.9281C119.941 95.1381 118.451 89.3381 112.461 88.7981C112.221 88.7781 112.031 88.5781 112.011 88.3381C112.001 88.0981 112.171 87.8781 112.411 87.8281C117.651 86.7881 120.701 83.1781 120.761 77.9181C120.761 77.6581 120.971 77.4481 121.231 77.4281C121.501 77.4181 121.711 77.6081 121.741 77.8681C121.961 79.9581 122.181 82.1181 123.321 84.0181C124.421 85.8581 125.331 86.5381 129.661 87.8881C129.891 87.9581 130.031 88.1781 130.001 88.4181C129.971 88.6581 129.771 88.8381 129.541 88.8481C124.021 89.1281 122.961 93.9081 122.251 97.0781C122.101 97.7581 121.971 98.3481 121.811 98.8281C121.741 99.0281 121.551 99.1581 121.341 99.1581V99.1481ZM114.611 88.2281C118.991 89.6381 120.581 93.9881 121.331 96.6881C121.971 93.8281 123.031 89.4281 127.441 88.1881C124.611 87.1781 123.581 86.3481 122.481 84.5281C121.871 83.5081 121.501 82.4281 121.251 81.3381C120.291 84.5981 117.971 87.0181 114.611 88.2381V88.2281Z" fill="#752346" fill-opacity="0.25"/>
</g>
<mask id="mask5_82_90" style="mask-type:luminance" maskUnits="userSpaceOnUse" x="56" y="60" width="14" height="20">
<path d="M69.561 60.4277H56.001V79.6677H69.561V60.4277Z" fill="white"/>
</mask>
<g mask="url(#mask5_82_90)">
<path d="M65.5211 79.6674C65.0411 79.6674 64.5811 79.5974 64.1711 79.4674C62.9111 79.0674 61.8011 78.1373 60.8611 76.7174C59.5011 74.6474 56.1311 67.0973 56.0011 65.2473C55.8911 63.4373 57.1011 61.6073 58.9511 60.7873C60.7811 59.9773 63.3411 60.3374 65.0411 63.7674L65.1011 63.8874C66.6311 66.9674 68.2111 70.1574 69.1911 73.5474C69.5711 74.8774 69.9411 76.8274 68.7111 78.2974C67.9111 79.2574 66.6711 79.6674 65.5111 79.6674H65.5211ZM59.3511 61.6874C57.8711 62.3374 56.9011 63.7773 56.9911 65.1773C57.0911 66.7273 60.3111 74.0874 61.6811 76.1674C62.5011 77.4174 63.4111 78.1873 64.4711 78.5273C65.5311 78.8673 67.1211 78.6774 67.9611 77.6674C68.6711 76.8174 68.7611 75.5973 68.2511 73.8173C67.3011 70.5173 65.7411 67.3674 64.2311 64.3274L64.1711 64.2073C62.4611 60.7673 60.2311 61.2974 59.3511 61.6874Z" fill="#752346" fill-opacity="0.25"/>
<path d="M60.7709 71.2271C60.7109 71.2271 60.6609 71.1971 60.6309 71.1471C60.5809 71.0671 60.6109 70.9671 60.6909 70.9171C62.0509 70.0971 63.4809 69.3871 64.9609 68.8071C65.0409 68.7771 65.1409 68.8071 65.1709 68.8971C65.2009 68.9771 65.1709 69.0771 65.0809 69.1071C63.6209 69.6771 62.2009 70.3871 60.8609 71.1971C60.8309 71.2171 60.8009 71.2171 60.7809 71.2171L60.7709 71.2271Z" fill="#752346" fill-opacity="0.25"/>
</g>
</g>
<mask id="mask6_82_90" style="mask-type:luminance" maskUnits="userSpaceOnUse" x="9" y="97" width="20" height="24">
<path d="M28.3285 97.8213H9.43945V120.322H28.3285V97.8213Z" fill="white"/>
</mask>
<g mask="url(#mask6_82_90)">
<path d="M19.235 120.323C19.0148 120.323 18.8155 120.167 18.7526 119.96C18.6792 119.711 18.5953 119.411 18.5114 119.059C17.7667 116.168 16.204 110.16 9.92162 109.601C9.66991 109.58 9.47064 109.373 9.44966 109.124C9.43917 108.875 9.61747 108.648 9.86918 108.596C15.3649 107.518 18.5638 103.779 18.6267 98.3293C18.6267 98.06 18.847 97.8424 19.1197 97.8217C19.4028 97.8113 19.6231 98.0082 19.6546 98.2775C19.8853 100.443 20.116 102.681 21.3117 104.649C22.4654 106.555 23.4198 107.259 27.9611 108.658C28.2023 108.73 28.3492 108.958 28.3177 109.207C28.2862 109.456 28.0765 109.642 27.8353 109.652C22.0458 109.942 20.9341 114.894 20.1895 118.178C20.0321 118.883 19.8958 119.494 19.728 119.991C19.6546 120.198 19.4553 120.333 19.235 120.333V120.323ZM12.1766 109.01C16.7703 110.471 18.4379 114.977 19.2246 117.774C19.8958 114.811 21.0075 110.253 25.6328 108.969C22.6646 107.922 21.5844 107.063 20.4307 105.177C19.7909 104.121 19.4028 103.002 19.1406 101.873C18.1338 105.25 15.7006 107.757 12.1766 109.021V109.01Z" fill="#752346" fill-opacity="0.25"/>
</g>
<mask id="mask7_82_90" style="mask-type:luminance" maskUnits="userSpaceOnUse" x="84" y="2" width="20" height="24">
<path d="M103.842 2.51465H84.9531V25.0152H103.842V2.51465Z" fill="white"/>
</mask>
<g mask="url(#mask7_82_90)">
<path d="M94.7487 25.0157C94.5284 25.0157 94.3291 24.8603 94.2662 24.6531C94.1928 24.4045 94.1089 24.104 94.025 23.7518C93.2803 20.8615 91.7176 14.8531 85.4353 14.2937C85.1835 14.273 84.9843 14.0658 84.9633 13.8172C84.9528 13.5685 85.1311 13.3406 85.3828 13.2888C90.8786 12.2115 94.0774 8.47169 94.1403 3.02265C94.1403 2.75331 94.3606 2.53576 94.6333 2.51504C94.9165 2.50468 95.1367 2.70151 95.1682 2.97086C95.3989 5.13597 95.6297 7.37359 96.8253 9.34188C97.979 11.248 98.9334 11.9525 103.475 13.351C103.716 13.4235 103.863 13.6514 103.832 13.9C103.8 14.1487 103.59 14.3351 103.349 14.3455C97.5595 14.6356 96.4477 19.5873 95.7031 22.8713C95.5457 23.5757 95.4094 24.1869 95.2416 24.6842C95.1682 24.8913 94.9689 25.026 94.7487 25.026V25.0157ZM87.6902 13.7032C92.284 15.1639 93.9516 19.6702 94.7382 22.4672C95.4094 19.5045 96.5211 14.9463 101.147 13.6618C98.1783 12.6155 97.098 11.7556 95.9443 9.8702C95.3045 8.81355 94.9165 7.69473 94.6543 6.56556C93.6474 9.94272 91.2142 12.4497 87.6902 13.7136V13.7032Z" fill="#752346" fill-opacity="0.25"/>
</g>
<mask id="mask8_82_90" style="mask-type:luminance" maskUnits="userSpaceOnUse" x="0" y="21" width="52" height="56">
<path d="M51.47 21.4277H0V76.2177H51.47V21.4277Z" fill="white"/>
</mask>
<g mask="url(#mask8_82_90)">
<path d="M30.5695 76.2181C30.1795 76.2181 29.7995 76.1981 29.4095 76.1681C28.6795 76.0981 27.9595 75.9681 27.2595 75.8481C26.3695 75.6881 25.5195 75.5281 24.6495 75.4981C23.7295 75.4581 22.8095 75.5581 21.8395 75.6681C20.8695 75.7781 19.8695 75.8781 18.8595 75.8381C14.4395 75.6481 10.3595 72.6881 6.36953 66.7881C3.66953 62.7681 0.49953 57.3881 0.0495298 51.3581C-0.41047 45.1981 2.49953 39.3181 7.28953 36.7381C12.1995 34.0881 18.1795 34.8581 23.8995 36.0981C26.5095 36.6581 29.4895 36.2481 32.3795 35.8481L33.2895 35.7281C35.2095 35.4681 37.1895 35.1981 39.1795 35.4681C44.5695 36.1881 49.7595 40.7781 50.9895 45.9281C51.9995 50.1781 51.3995 55.0781 49.1495 60.9081C47.3295 65.6281 43.5495 69.6481 41.4595 71.6281C38.3495 74.5681 34.3595 76.2481 30.5795 76.2481L30.5695 76.2181ZM24.2595 74.4981C24.4095 74.4981 24.5495 74.4981 24.6995 74.4981C25.6295 74.5381 26.5495 74.6981 27.4395 74.8581C28.1195 74.9781 28.8195 75.1081 29.4995 75.1681C33.3395 75.5181 37.5495 73.9181 40.7695 70.8681C42.7995 68.9481 46.4695 65.0481 48.2195 60.5081C50.3995 54.8681 50.9895 50.1581 50.0195 46.1181C48.8995 41.4181 43.9695 37.0581 39.0395 36.4081C37.1795 36.1581 35.2595 36.4181 33.4095 36.6681L32.4995 36.7881C29.5295 37.1981 26.4595 37.6281 23.6795 37.0281C18.1395 35.8381 12.3695 35.0781 7.73953 37.5781C2.60953 40.3781 0.66953 46.4681 1.02953 51.2781C1.45953 57.0781 4.55953 62.3181 7.19953 66.2281C10.9995 71.8481 14.8295 74.6681 18.9195 74.8381C19.8495 74.8781 20.7795 74.7781 21.7495 74.6681C22.5695 74.5781 23.4095 74.4881 24.2595 74.4881V74.4981Z" fill="#752346" fill-opacity="0.25"/>
<path d="M26.8597 37.178C26.6297 37.178 26.4297 37.018 26.3797 36.788C25.6197 33.278 24.6697 28.918 21.7997 25.988C21.6097 25.798 21.6097 25.478 21.7997 25.288C21.9897 25.098 22.3097 25.098 22.4997 25.288C25.5597 28.418 26.5497 32.938 27.3397 36.568C27.3997 36.838 27.2297 37.098 26.9597 37.158C26.9197 37.158 26.8897 37.168 26.8497 37.168L26.8597 37.178Z" fill="#752346" fill-opacity="0.25"/>
<path d="M27.1191 37.1181C27.0191 37.1181 26.9191 37.0881 26.8291 37.0281C26.6991 36.9381 26.6291 36.7981 26.6191 36.6381C26.5191 32.6881 27.9691 27.5781 32.3391 25.0981C33.4791 24.4481 34.7491 24.0281 35.9791 23.6281C37.6391 23.0781 39.199 22.5681 40.439 21.5381C40.579 21.4281 40.7691 21.3981 40.9291 21.4581C41.0991 21.5281 41.2091 21.6781 41.2391 21.8581C41.5091 23.9781 41.6991 26.0381 41.1091 27.9981C40.3691 30.4081 38.439 32.5681 35.669 34.0681C33.759 35.0981 31.6891 35.7381 29.2791 36.4681C28.6291 36.6681 27.9591 36.8681 27.2491 37.0981C27.1991 37.1181 27.1491 37.1181 27.0991 37.1181H27.1191ZM40.3791 22.8081C39.1391 23.6181 37.6991 24.0981 36.2991 24.5581C35.1191 24.9481 33.8991 25.3581 32.8391 25.9481C29.0791 28.0781 27.6791 32.3881 27.6091 35.9481C28.0891 35.7981 28.5491 35.6581 29.0091 35.5181C31.3591 34.7981 33.3891 34.1781 35.2191 33.1981C37.7591 31.8181 39.529 29.8681 40.189 27.7081C40.659 26.1681 40.5891 24.5581 40.3891 22.8081H40.3791Z" fill="#752346" fill-opacity="0.25"/>
<path d="M27.1391 36.8482C27.1391 36.8482 27.0891 36.8482 27.0591 36.8282C26.9791 36.7882 26.9491 36.6882 26.9991 36.6082C28.4891 33.8982 30.6291 31.4882 33.1791 29.6282C33.2491 29.5782 33.3591 29.5882 33.4091 29.6682C33.4591 29.7382 33.4491 29.8482 33.3691 29.8982C30.8591 31.7282 28.7491 34.1082 27.2791 36.7782C27.2491 36.8282 27.1891 36.8582 27.1391 36.8582V36.8482Z" fill="#752346" fill-opacity="0.25"/>
<path d="M7.73953 43.4182C7.73953 43.4182 7.67953 43.4182 7.64953 43.3882C7.56953 43.3382 7.54953 43.2382 7.59953 43.1582C8.69953 41.4182 10.4895 40.0682 12.5295 39.4482C12.6195 39.4182 12.7095 39.4682 12.7295 39.5582C12.7595 39.6482 12.7095 39.7382 12.6195 39.7582C10.6595 40.3482 8.92953 41.6482 7.86953 43.3282C7.83953 43.3782 7.78953 43.4082 7.72953 43.4082L7.73953 43.4182Z" fill="#752346" fill-opacity="0.25"/>
</g>
<mask id="mask9_82_90" style="mask-type:luminance" maskUnits="userSpaceOnUse" x="132" y="107" width="38" height="39">
<path d="M169.04 107H132V145.96H169.04V107Z" fill="white"/>
</mask>
<g mask="url(#mask9_82_90)">
<path d="M152.2 145.96C151.99 145.96 151.78 145.96 151.57 145.95C142.92 145.63 136.56 141.86 133.65 135.33C130.56 128.41 131.9 119.39 136.9 113.41C141.25 108.21 148.26 105.85 154.35 107.54C161.59 109.56 166.86 114.76 168.43 121.46C169.99 128.12 168.5 135.25 164.52 140.09C161.39 143.89 157.03 145.96 152.19 145.96H152.2ZM150.3 107.98C145.64 107.98 140.88 110.18 137.65 114.04C132.89 119.75 131.61 128.33 134.54 134.93C137.29 141.1 143.34 144.66 151.6 144.97C156.37 145.15 160.7 143.19 163.76 139.47C167.54 134.87 168.97 128.06 167.47 121.69C165.98 115.35 160.97 110.42 154.08 108.5C152.85 108.16 151.57 107.99 150.29 107.99L150.3 107.98Z" fill="#752346" fill-opacity="0.25"/>
<path d="M144.739 120.63L141.689 123.75L150.679 135.32L159.369 120.62L156.149 117.65L150.079 127.58L144.739 120.63Z" fill="#752346" fill-opacity="0.25"/>
<path d="M150.68 135.811C150.53 135.811 150.39 135.741 150.29 135.621L141.3 124.061C141.15 123.871 141.16 123.591 141.34 123.411L144.38 120.281C144.48 120.181 144.62 120.131 144.76 120.131C144.9 120.131 145.03 120.211 145.12 120.321L150.03 126.701L155.72 117.381C155.8 117.251 155.93 117.171 156.07 117.151C156.22 117.131 156.36 117.181 156.47 117.281L159.69 120.251C159.86 120.411 159.9 120.661 159.78 120.861L151.09 135.561C151.01 135.701 150.86 135.791 150.7 135.801C150.69 135.801 150.68 135.801 150.67 135.801L150.68 135.811ZM142.34 123.791L150.62 134.441L158.74 120.711L156.25 118.411L150.5 127.831C150.42 127.971 150.27 128.061 150.11 128.061C149.94 128.061 149.79 128.001 149.69 127.871L144.69 121.371L142.34 123.781V123.791Z" fill="#752346" fill-opacity="0.25"/>
</g>
</g>
</g>
<defs>
<clipPath id="clip0_82_90">
<rect width="172" height="154" fill="white"/>
</clipPath>
</defs>
</svg>
