<svg width="134" height="26" viewBox="0 0 134 26" fill="none" xmlns="http://www.w3.org/2000/svg">
<path d="M101.1 15.9295C100.789 16.2466 100.647 16.7051 100.717 17.1547L101.784 23.369C101.874 23.8957 101.663 24.4287 101.244 24.7332C100.834 25.0489 100.288 25.0868 99.8403 24.8342L94.5262 21.9165C94.3414 21.8129 94.1363 21.7573 93.9263 21.751H93.6011C93.4883 21.7687 93.378 21.8066 93.2772 21.8647L87.9619 24.7963C87.6991 24.9352 87.4015 24.9845 87.11 24.9352C86.3997 24.7938 85.9257 24.0814 86.0421 23.3299L87.11 17.1156C87.1808 16.6621 87.038 16.2011 86.7272 15.879L82.3946 11.4582C82.0322 11.0882 81.9063 10.5324 82.0718 10.031C82.2326 9.5308 82.643 9.16577 83.1385 9.08367L89.1017 8.17299C89.5553 8.12373 89.9536 7.83323 90.1576 7.40378L92.7852 1.73258C92.8476 1.60628 92.928 1.49007 93.0252 1.39155L93.1332 1.30314C93.1896 1.23746 93.2544 1.18315 93.3264 1.13894L93.4572 1.08842L93.6611 1H94.1663C94.6174 1.04926 95.0146 1.33345 95.2221 1.75784L97.8846 7.40378C98.0766 7.81681 98.4497 8.10353 98.8804 8.17299L104.844 9.08367C105.348 9.15946 105.769 9.52575 105.936 10.031C106.093 10.5375 105.957 11.0932 105.588 11.4582L101.1 15.9295Z" fill="#FF9D00" stroke="#FFC400" stroke-width="2"/>
<path d="M128.1 15.9295C127.789 16.2466 127.647 16.7051 127.717 17.1547L128.784 23.369C128.874 23.8957 128.663 24.4287 128.244 24.7332C127.834 25.0489 127.288 25.0868 126.84 24.8342L121.526 21.9165C121.341 21.8129 121.136 21.7573 120.926 21.751H120.601C120.488 21.7687 120.378 21.8066 120.277 21.8647L114.962 24.7963C114.699 24.9352 114.402 24.9845 114.11 24.9352C113.4 24.7938 112.926 24.0814 113.042 23.3299L114.11 17.1156C114.181 16.6621 114.038 16.2011 113.727 15.879L109.395 11.4582C109.032 11.0882 108.906 10.5324 109.072 10.031C109.233 9.5308 109.643 9.16577 110.139 9.08367L116.102 8.17299C116.555 8.12373 116.954 7.83323 117.158 7.40378L119.785 1.73258C119.848 1.60628 119.928 1.49007 120.025 1.39155L120.133 1.30314C120.19 1.23746 120.254 1.18315 120.326 1.13894L120.457 1.08842L120.661 1H121.166C121.617 1.04926 122.015 1.33345 122.222 1.75784L124.885 7.40378C125.077 7.81681 125.45 8.10353 125.88 8.17299L131.844 9.08367C132.348 9.15946 132.769 9.52575 132.936 10.031C133.093 10.5375 132.957 11.0932 132.588 11.4582L128.1 15.9295Z" fill="#FF9D00" stroke="#FFC400" stroke-width="2"/>
<path d="M74.1002 15.9295C73.7894 16.2466 73.6466 16.7051 73.7174 17.1547L74.7841 23.369C74.8741 23.8957 74.6629 24.4287 74.2441 24.7332C73.8338 25.0489 73.2879 25.0868 72.8403 24.8342L67.5262 21.9165C67.3414 21.8129 67.1363 21.7573 66.9263 21.751H66.6011C66.4883 21.7687 66.378 21.8066 66.2772 21.8647L60.9619 24.7963C60.6991 24.9352 60.4015 24.9845 60.11 24.9352C59.3997 24.7938 58.9257 24.0814 59.0421 23.3299L60.11 17.1156C60.1808 16.6621 60.038 16.2011 59.7272 15.879L55.3946 11.4582C55.0322 11.0882 54.9063 10.5324 55.0718 10.031C55.2326 9.5308 55.643 9.16577 56.1385 9.08367L62.1017 8.17299C62.5553 8.12373 62.9536 7.83323 63.1576 7.40378L65.7852 1.73258C65.8476 1.60628 65.928 1.49007 66.0252 1.39155L66.1332 1.30314C66.1896 1.23746 66.2544 1.18315 66.3264 1.13894L66.4572 1.08842L66.6611 1H67.1663C67.6174 1.04926 68.0146 1.33345 68.2221 1.75784L70.8846 7.40378C71.0766 7.81681 71.4497 8.10353 71.8804 8.17299L77.8437 9.08367C78.3476 9.15946 78.7687 9.52575 78.9355 10.031C79.0927 10.5375 78.9571 11.0932 78.5876 11.4582L74.1002 15.9295Z" fill="#FF9D00" stroke="#FFC400" stroke-width="2"/>
<path d="M47.1002 15.9295C46.7894 16.2466 46.6466 16.7051 46.7174 17.1547L47.7841 23.369C47.8741 23.8957 47.6629 24.4287 47.2441 24.7332C46.8338 25.0489 46.2879 25.0868 45.8403 24.8342L40.5262 21.9165C40.3414 21.8129 40.1363 21.7573 39.9263 21.751H39.6011C39.4883 21.7687 39.378 21.8066 39.2772 21.8647L33.9619 24.7963C33.6991 24.9352 33.4015 24.9845 33.11 24.9352C32.3997 24.7938 31.9257 24.0814 32.0421 23.3299L33.11 17.1156C33.1808 16.6621 33.038 16.2011 32.7272 15.879L28.3946 11.4582C28.0322 11.0882 27.9063 10.5324 28.0718 10.031C28.2326 9.5308 28.643 9.16577 29.1385 9.08367L35.1017 8.17299C35.5553 8.12373 35.9536 7.83323 36.1576 7.40378L38.7852 1.73258C38.8476 1.60628 38.928 1.49007 39.0252 1.39155L39.1332 1.30314C39.1896 1.23746 39.2544 1.18315 39.3264 1.13894L39.4572 1.08842L39.6611 1H40.1663C40.6174 1.04926 41.0146 1.33345 41.2221 1.75784L43.8846 7.40378C44.0766 7.81681 44.4497 8.10353 44.8804 8.17299L50.8437 9.08367C51.3476 9.15946 51.7687 9.52575 51.9355 10.031C52.0927 10.5375 51.9571 11.0932 51.5876 11.4582L47.1002 15.9295Z" fill="#FF9D00" stroke="#FFC400" stroke-width="2"/>
<path d="M20.1002 15.9295C19.7894 16.2466 19.6466 16.7051 19.7174 17.1547L20.7841 23.369C20.8741 23.8957 20.6629 24.4287 20.2441 24.7332C19.8338 25.0489 19.2879 25.0868 18.8403 24.8342L13.5262 21.9165C13.3414 21.8129 13.1363 21.7573 12.9263 21.751H12.6011C12.4883 21.7687 12.378 21.8066 12.2772 21.8647L6.96187 24.7963C6.69911 24.9352 6.40155 24.9845 6.10998 24.9352C5.39968 24.7938 4.92574 24.0814 5.04212 23.3299L6.10998 17.1156C6.18077 16.6621 6.03799 16.2011 5.72723 15.879L1.3946 11.4582C1.03225 11.0882 0.906263 10.5324 1.07184 10.031C1.23262 9.5308 1.64297 9.16577 2.1385 9.08367L8.10172 8.17299C8.55526 8.12373 8.95361 7.83323 9.15759 7.40378L11.7852 1.73258C11.8476 1.60628 11.928 1.49007 12.0252 1.39155L12.1332 1.30314C12.1896 1.23746 12.2544 1.18315 12.3264 1.13894L12.4572 1.08842L12.6611 1H13.1663C13.6174 1.04926 14.0146 1.33345 14.2221 1.75784L16.8846 7.40378C17.0766 7.81681 17.4497 8.10353 17.8804 8.17299L23.8437 9.08367C24.3476 9.15946 24.7687 9.52575 24.9355 10.031C25.0927 10.5375 24.9571 11.0932 24.5876 11.4582L20.1002 15.9295Z" fill="#FF9D00" stroke="#FFC400" stroke-width="2"/>
</svg>
