<svg width="704" height="613" viewBox="0 0 704 613" fill="none" xmlns="http://www.w3.org/2000/svg">
<path d="M222.017 423.695C207.336 429.259 201.761 442.899 211.355 450.686C231.096 466.71 312.362 458.795 316.185 447.932C319.953 437.232 252.648 412.08 222.017 423.695Z" stroke="url(#paint0_linear_484_36)" stroke-opacity="0.15" stroke-width="3" stroke-miterlimit="10"/>
<path d="M258.39 388.054C291.922 377.421 348.225 453.128 324.984 471.003C310.696 481.992 276.105 480.619 247.896 477.007C221.416 473.618 183.576 459.754 174.242 436.732C169.299 424.509 172.267 407.095 182.735 400.998C190.836 396.279 201.774 398.402 204.188 397.617C215.691 401.937 217.378 403.616 226.543 404.629C238.522 405.953 249.169 390.979 258.39 388.054Z" stroke="url(#paint1_linear_484_36)" stroke-opacity="0.15" stroke-width="3" stroke-miterlimit="10"/>
<path d="M292.412 350.818C331.356 356.447 373.676 467.026 331.431 492.475C304.527 508.682 257.622 501.526 224.93 492.957C194.899 485.086 144.892 458.822 134.776 421.18C128.894 399.308 136.041 368.54 156.516 359.641C172.838 352.549 193.869 358.647 197.571 359.116C219.457 369.776 221.228 375.199 237.523 378.85C259.102 383.677 276.136 348.454 292.412 350.818Z" stroke="url(#paint2_linear_484_36)" stroke-opacity="0.15" stroke-width="3" stroke-miterlimit="10"/>
<path d="M323.968 313.827C366.967 324.204 396.66 481.08 335.411 514.19C295.881 535.556 236.65 522.739 199.497 509.15C165.887 496.86 103.924 458.185 92.8434 405.871C86.1592 374.322 97.3139 330.267 127.828 318.526C152.348 309.09 183.662 318.774 188.481 320.859C222.168 335.438 222.595 347.024 246.049 353.312C277.203 361.688 301.449 308.405 323.968 313.827Z" stroke="url(#paint3_linear_484_36)" stroke-opacity="0.15" stroke-width="3" stroke-miterlimit="10"/>
<path d="M353.626 278.522C401.244 293.491 417.669 496.661 337.492 537.593C285.284 564.009 213.75 545.673 172.169 527.034C134.942 510.35 61.0993 459.271 48.9993 392.248C41.5618 351.049 56.6751 293.691 97.2321 279.092C129.964 267.32 171.313 281.128 177.486 284.277C220.91 306.431 222.034 320.583 252.637 329.464C293.375 341.387 325.122 269.564 353.626 278.522Z" stroke="url(#paint4_linear_484_36)" stroke-opacity="0.15" stroke-width="3" stroke-miterlimit="10"/>
<path d="M65.3033 240.126C106.233 226.022 157.593 243.934 165.158 248.167C218.203 277.847 220.165 294.505 257.907 306.061C308.236 321.472 347.674 230.927 381.927 243.664C434.542 263.229 437.494 512.953 338.218 561.443C273.44 593.083 189.465 569.076 143.481 545.362C102.644 524.304 16.9746 460.819 3.82636 379.074C-4.34686 328.229 14.6968 257.562 65.3033 240.126Z" stroke="url(#paint5_linear_484_36)" stroke-opacity="0.15" stroke-width="3" stroke-miterlimit="10"/>
<path d="M508.207 214.394C492.084 214.271 472.749 188.961 487.208 184.735C495.559 182.29 517.67 186.157 526.355 193.037C538.586 202.718 519.302 214.481 508.207 214.394Z" stroke="url(#paint6_linear_484_36)" stroke-opacity="0.15" stroke-width="3" stroke-miterlimit="10"/>
<path d="M464.392 188.281C465.969 184.883 473.358 183.375 480.097 179.239C493.773 170.844 495.734 166.856 505.446 161.793C509.233 159.816 514.33 157.217 519.304 158.407C526.924 160.23 528.825 168.123 538.494 182.024C551.03 200.088 555.778 204.757 552.196 214.33C551.361 216.555 550.281 223.763 544.243 228.161C535.882 234.239 526.081 229.544 513.828 233.567C499.113 238.391 491.818 246.98 485.431 243.184C480.934 240.512 480.766 233.191 477.398 220.444C474.832 210.734 473.218 204.362 470.098 199.164C466.356 192.976 462.636 192.056 464.392 188.281Z" stroke="url(#paint7_linear_484_36)" stroke-opacity="0.15" stroke-width="3" stroke-miterlimit="10"/>
<path d="M439.747 195.36C440.021 189.339 450.469 186.426 459.079 177.725C476.737 159.878 468.556 147.125 482.71 134.086C488.715 128.55 498.14 123.189 507.585 124.227C520.989 125.703 525.492 138.238 546.127 163.65C573.105 196.876 584.598 203.383 582.079 221.089C581.564 224.697 581.062 238.554 570.519 246.893C556.458 258.016 539.602 247.898 517.588 256.257C492.99 265.584 483.798 285.526 475.504 281.399C469.743 278.534 471.95 266.993 467.522 244.485C464.388 228.486 462.451 219.137 456.186 211.478C448.279 201.82 439.453 201.9 439.747 195.36Z" stroke="url(#paint8_linear_484_36)" stroke-opacity="0.15" stroke-width="3" stroke-miterlimit="10"/>
<path d="M415.078 202.362C414.012 193.732 427.54 189.394 438.034 176.13C459.64 148.822 441.013 127.478 459.95 106.295C468.055 97.2311 481.956 89.1226 495.841 89.9685C515.083 91.1392 522.193 108.218 553.764 145.197C595.27 193.514 613.144 202.022 611.971 227.768C611.741 232.789 611.847 253.258 596.804 265.557C577.04 281.713 553.096 266.153 521.362 278.873C486.857 292.704 475.799 323.99 465.571 319.545C458.553 316.47 463.048 300.723 457.643 268.453C453.912 246.166 451.662 233.883 442.267 223.719C430.156 210.621 416.219 211.657 415.078 202.362Z" stroke="url(#paint9_linear_484_36)" stroke-opacity="0.15" stroke-width="3" stroke-miterlimit="10"/>
<path d="M390.352 209.342C387.961 198.114 404.531 192.334 416.933 174.516C442.441 137.733 413.326 107.882 437.136 78.487C447.312 65.9109 465.728 55.0525 484.043 55.6893C509.138 56.5641 518.743 78.2458 561.329 126.726C617.23 190.218 641.559 200.703 641.775 234.43C641.817 240.864 642.522 267.926 622.999 284.201C597.505 305.371 566.517 284.378 525.044 301.473C480.624 319.787 467.7 362.447 455.581 357.673C447.302 354.399 454.09 334.432 447.707 292.403C443.368 263.826 440.82 248.625 428.294 235.943C411.969 219.423 392.925 221.417 390.352 209.342Z" stroke="url(#paint10_linear_484_36)" stroke-opacity="0.15" stroke-width="3" stroke-miterlimit="10"/>
<path d="M365.581 216.323C369.586 231.183 393.729 228.225 414.265 248.165C429.926 263.37 432.771 281.482 437.718 316.353C445.063 368.137 435.995 392.327 445.536 395.798C459.562 400.903 474.348 346.867 528.689 324.072C579.883 302.6 617.977 329.071 649.156 302.844C673.193 282.623 671.857 248.967 671.543 241.09C669.887 199.392 639.146 186.919 568.845 108.253C515.239 48.2703 503.151 21.9924 472.188 21.4102C449.445 20.9824 426.507 34.5974 414.265 50.6794C385.598 88.3112 425.256 126.686 395.786 172.902C381.504 195.298 361.853 202.499 365.581 216.323Z" stroke="url(#paint11_linear_484_36)" stroke-opacity="0.15" stroke-width="3" stroke-miterlimit="10"/>
<path d="M570.461 455.496C566.255 453.565 557.421 457.284 556.638 463.076C555.754 469.647 565.75 475.083 570.142 473.395C575.338 471.394 576.044 458.048 570.461 455.496Z" stroke="url(#paint12_linear_484_36)" stroke-opacity="0.15" stroke-width="3" stroke-miterlimit="10"/>
<path d="M582.316 490.41C589.488 484.342 592.622 473.203 596.208 454.11C599.762 435.178 599.203 421.625 596.08 420.64C594.378 420.11 589.555 424.262 585.419 427.305C577.675 432.986 564.421 432.355 561.024 432.969C548.586 435.221 544.933 439.402 539.734 447.411C537.328 451.11 531.718 459.311 529.248 468.961C525.48 483.573 508.598 488.076 510.656 493.933C512.386 498.821 529.112 500.008 539.958 500.146C555.501 500.346 571.229 499.783 582.316 490.41Z" stroke="url(#paint13_linear_484_36)" stroke-opacity="0.15" stroke-width="3" stroke-miterlimit="10"/>
<path d="M594.747 506.725C606.534 495.879 611.172 477.677 618.314 443.638C625.57 409.436 625.524 385.975 621.95 385.1C619.267 384.431 610.579 392.887 603.194 398.93C589.274 410.371 564.357 408.49 559.222 409.223C535.804 412.497 530.033 420.342 520.958 435.17C517.176 441.345 506.803 456.398 502.077 474.175C494.803 501.408 460.316 508.539 463.169 518.635C465.554 527.043 497.535 528.333 517.659 527.64C546.073 526.64 574.83 525.058 594.747 506.725Z" stroke="url(#paint14_linear_484_36)" stroke-opacity="0.15" stroke-width="3" stroke-miterlimit="10"/>
<path d="M607.11 522.936C623.524 507.317 629.612 482.039 640.35 433.063C651.256 383.579 651.764 350.267 647.749 349.437C644.071 348.664 631.523 361.401 620.912 370.462C600.853 387.692 564.239 384.524 557.364 385.354C522.972 389.51 515.051 401.131 502.123 422.809C496.963 431.458 481.836 453.365 474.846 479.261C464.074 519.117 411.979 528.87 415.622 543.208C418.664 555.135 465.908 556.578 495.304 555C536.583 552.893 578.408 550.249 607.11 522.936Z" stroke="url(#paint15_linear_484_36)" stroke-opacity="0.15" stroke-width="3" stroke-miterlimit="10"/>
<path d="M619.434 539.137C640.485 518.745 648.015 486.388 662.351 422.475C676.921 357.716 677.986 314.562 673.515 313.761C668.839 312.915 652.426 329.882 638.595 341.966C612.356 364.947 564.091 360.525 555.474 361.473C510.108 366.455 499.976 381.881 483.254 410.433C476.693 421.548 456.833 450.316 447.586 484.333C433.309 536.812 363.605 549.189 368.047 567.769C371.738 583.208 434.247 584.749 472.916 582.349C527.041 579.046 581.962 575.44 619.434 539.137Z" stroke="url(#paint16_linear_484_36)" stroke-opacity="0.15" stroke-width="3" stroke-miterlimit="10"/>
<path d="M553.565 337.582C497.23 343.371 484.981 362.67 464.371 398.05C456.445 411.652 431.812 447.26 420.305 489.396C402.538 554.501 315.216 569.5 320.45 592.32C324.8 611.296 402.566 612.904 450.511 609.688C517.502 605.185 585.508 600.624 631.743 555.331C657.432 530.163 666.402 490.737 684.336 411.881C702.541 331.843 704.165 278.857 699.262 278.079C693.576 277.178 673.32 298.341 656.263 313.459C623.84 342.188 563.927 336.517 553.565 337.582Z" stroke="url(#paint17_linear_484_36)" stroke-opacity="0.15" stroke-width="3" stroke-miterlimit="10"/>
<path d="M95.5087 182.873C101.905 205.067 147.818 194.642 202.471 244.629C222.055 262.54 235.185 281.276 261.105 284.19C263.72 284.483 289.687 287.053 308.012 271.968C331.069 252.991 316.997 226.664 343.904 189.95C353.814 176.424 355.464 180.352 362.738 169.687C393.782 124.158 346.434 77.9388 373.754 31.7032C386.33 10.4203 405.025 5.53464 403.248 2.75567C395.58 -9.1675 78.2242 123.072 95.5087 182.873Z" stroke="url(#paint18_linear_484_36)" stroke-opacity="0.15" stroke-width="3" stroke-miterlimit="10"/>
<path d="M268.212 253.85C269.783 253.656 286.904 254.814 298.649 244.149C313.499 230.682 302.913 212.139 319.928 187.106C326.189 177.888 327.06 180.387 331.516 173.095C350.527 141.98 316.405 110.678 333.115 80.2189C340.848 66.1182 353.054 62.8857 351.239 61.5091C343.026 55.2307 133.554 147.981 150.006 188.341C156.175 203.478 189.852 198.107 228.387 230.708C242.399 242.553 251.888 255.853 268.212 253.85Z" stroke="url(#paint19_linear_484_36)" stroke-opacity="0.15" stroke-width="3" stroke-miterlimit="10"/>
<path d="M275.32 223.508C275.767 222.488 284.139 222.51 289.285 216.331C295.966 208.316 288.852 197.638 295.952 184.267C298.556 179.359 298.663 180.408 300.298 176.506C307.317 159.727 286.35 143.439 292.48 128.733C295.347 121.811 300.679 120.631 299.256 120.261C288.866 121.596 189.096 172.984 204.487 193.811C210.495 201.948 232.005 201.558 254.287 216.788C262.755 222.578 268.298 226.817 275.32 223.508Z" stroke="url(#paint20_linear_484_36)" stroke-opacity="0.15" stroke-width="3" stroke-miterlimit="10"/>
<path d="M282.427 193.165C276.911 178.579 255.2 173.619 247.247 179.013C235.52 186.977 245.522 197.346 258.974 199.276C269.027 200.707 288.738 209.858 282.427 193.165Z" stroke="url(#paint21_linear_484_36)" stroke-opacity="0.15" stroke-width="3" stroke-miterlimit="10"/>
<defs>
<linearGradient id="paint0_linear_484_36" x1="206.591" y1="420.698" x2="319.466" y2="445.573" gradientUnits="userSpaceOnUse">
<stop stop-color="#00C9E6"/>
<stop offset="1" stop-color="#79C96B"/>
</linearGradient>
<linearGradient id="paint1_linear_484_36" x1="171.913" y1="387.036" x2="339.86" y2="409.598" gradientUnits="userSpaceOnUse">
<stop stop-color="#00C9E6"/>
<stop offset="1" stop-color="#79C96B"/>
</linearGradient>
<linearGradient id="paint2_linear_484_36" x1="132.788" y1="350.704" x2="363.072" y2="376.495" gradientUnits="userSpaceOnUse">
<stop stop-color="#00C9E6"/>
<stop offset="1" stop-color="#79C96B"/>
</linearGradient>
<linearGradient id="paint3_linear_484_36" x1="90.9749" y1="313.439" x2="388.968" y2="344.217" gradientUnits="userSpaceOnUse">
<stop stop-color="#00C9E6"/>
<stop offset="1" stop-color="#79C96B"/>
</linearGradient>
<linearGradient id="paint4_linear_484_36" x1="47.1724" y1="274.42" x2="417.078" y2="310.786" gradientUnits="userSpaceOnUse">
<stop stop-color="#00C9E6"/>
<stop offset="1" stop-color="#79C96B"/>
</linearGradient>
<linearGradient id="paint5_linear_484_36" x1="2" y1="234.803" x2="446.662" y2="277.27" gradientUnits="userSpaceOnUse">
<stop stop-color="#00C9E6"/>
<stop offset="1" stop-color="#79C96B"/>
</linearGradient>
<linearGradient id="paint6_linear_484_36" x1="482.122" y1="183.999" x2="533.265" y2="190.356" gradientUnits="userSpaceOnUse">
<stop stop-color="#00C9E6"/>
<stop offset="1" stop-color="#79C96B"/>
</linearGradient>
<linearGradient id="paint7_linear_484_36" x1="463.944" y1="158.106" x2="559.735" y2="165.919" gradientUnits="userSpaceOnUse">
<stop stop-color="#00C9E6"/>
<stop offset="1" stop-color="#79C96B"/>
</linearGradient>
<linearGradient id="paint8_linear_484_36" x1="439.74" y1="124.097" x2="592.842" y2="134.954" gradientUnits="userSpaceOnUse">
<stop stop-color="#00C9E6"/>
<stop offset="1" stop-color="#79C96B"/>
</linearGradient>
<linearGradient id="paint9_linear_484_36" x1="415.019" y1="89.9077" x2="626.527" y2="104.118" gradientUnits="userSpaceOnUse">
<stop stop-color="#00C9E6"/>
<stop offset="1" stop-color="#79C96B"/>
</linearGradient>
<linearGradient id="paint10_linear_484_36" x1="390.12" y1="55.6626" x2="660.381" y2="73.3107" gradientUnits="userSpaceOnUse">
<stop stop-color="#00C9E6"/>
<stop offset="1" stop-color="#79C96B"/>
</linearGradient>
<linearGradient id="paint11_linear_484_36" x1="365.119" y1="21.4004" x2="694.359" y2="42.5315" gradientUnits="userSpaceOnUse">
<stop stop-color="#00C9E6"/>
<stop offset="1" stop-color="#79C96B"/>
</linearGradient>
<linearGradient id="paint12_linear_484_36" x1="556.583" y1="454.981" x2="575.641" y2="456.401" gradientUnits="userSpaceOnUse">
<stop stop-color="#00C9E6"/>
<stop offset="1" stop-color="#79C96B"/>
</linearGradient>
<linearGradient id="paint13_linear_484_36" x1="510.482" y1="420.594" x2="604.859" y2="428.798" gradientUnits="userSpaceOnUse">
<stop stop-color="#00C9E6"/>
<stop offset="1" stop-color="#79C96B"/>
</linearGradient>
<linearGradient id="paint14_linear_484_36" x1="463.001" y1="385.062" x2="635.606" y2="400.366" gradientUnits="userSpaceOnUse">
<stop stop-color="#00C9E6"/>
<stop offset="1" stop-color="#79C96B"/>
</linearGradient>
<linearGradient id="paint15_linear_484_36" x1="415.44" y1="349.403" x2="666.458" y2="371.82" gradientUnits="userSpaceOnUse">
<stop stop-color="#00C9E6"/>
<stop offset="1" stop-color="#79C96B"/>
</linearGradient>
<linearGradient id="paint16_linear_484_36" x1="367.844" y1="313.73" x2="697.363" y2="343.275" gradientUnits="userSpaceOnUse">
<stop stop-color="#00C9E6"/>
<stop offset="1" stop-color="#79C96B"/>
</linearGradient>
<linearGradient id="paint17_linear_484_36" x1="320.225" y1="278.051" x2="728.271" y2="314.726" gradientUnits="userSpaceOnUse">
<stop stop-color="#00C9E6"/>
<stop offset="1" stop-color="#79C96B"/>
</linearGradient>
<linearGradient id="paint18_linear_484_36" x1="94.8276" y1="2" x2="425.149" y2="30.3019" gradientUnits="userSpaceOnUse">
<stop stop-color="#00C9E6"/>
<stop offset="1" stop-color="#79C96B"/>
</linearGradient>
<linearGradient id="paint19_linear_484_36" x1="149.086" y1="61.2056" x2="365.826" y2="79.0475" gradientUnits="userSpaceOnUse">
<stop stop-color="#00C9E6"/>
<stop offset="1" stop-color="#79C96B"/>
</linearGradient>
<linearGradient id="paint20_linear_484_36" x1="202.877" y1="120.261" x2="308.926" y2="128.14" gradientUnits="userSpaceOnUse">
<stop stop-color="#00C9E6"/>
<stop offset="1" stop-color="#79C96B"/>
</linearGradient>
<linearGradient id="paint21_linear_484_36" x1="242.061" y1="176.893" x2="286.224" y2="182.399" gradientUnits="userSpaceOnUse">
<stop stop-color="#00C9E6"/>
<stop offset="1" stop-color="#79C96B"/>
</linearGradient>
</defs>
</svg>
